<?xml version="1.0" encoding="UTF-8"?>
<svg width="16px" height="15px" viewBox="0 0 16 15" version="1.1" xmlns="http://www.w3.org/2000/svg" xmlns:xlink="http://www.w3.org/1999/xlink">
    <title>38C11D25-BF01-42D7-A329-CB63DB992A6E</title>
    <g id="Page-1" stroke="none" stroke-width="1" fill="none" fill-rule="evenodd">
        <g id="02---My-Account" transform="translate(-42.000000, -578.000000)" fill="#660960" fill-rule="nonzero">
            <g id="box" transform="translate(42.000000, 578.000000)">
                <path d="M7.02391304,6.93999012 L0.205731225,4.06917984 C0.10805336,4.0280336 0,4.09977273 0,4.20578063 L0,11.8806522 C0,12.074585 0.118073123,12.2490119 0.298162055,12.3210178 L6.91135375,14.9662945 C7.00870553,15.005247 7.11462451,14.9335375 7.11462451,14.8286858 L7.11462451,7.07659091 C7.11462451,7.01694664 7.07887352,6.96314229 7.02391304,6.93999012 Z" id="Path"></path>
                <path d="M7.64644269,6.12438735 L14.2368083,3.34950593 C14.3552668,3.29964427 14.3584387,3.1329249 14.2419664,3.07858696 L7.78950593,0.0674407115 C7.66236166,0.00812252964 7.51550395,0.00812252964 7.38835968,0.0674407115 L0.935899209,3.07858696 C0.819426877,3.1329249 0.822598814,3.29964427 0.941057312,3.34950593 L7.53142292,6.12438735 C7.56818182,6.1398913 7.60968379,6.1398913 7.64644269,6.12438735 Z" id="Path"></path>
                <path d="M8.06324111,7.07659091 L8.06324111,14.8286858 C8.06324111,14.9335375 8.16916008,15.005247 8.26651186,14.9662945 L14.8797036,12.3210178 C15.0597628,12.2489822 15.1778656,12.074585 15.1778656,11.8806522 L15.1778656,4.20578063 C15.1778656,4.09977273 15.0698123,4.0280336 14.9721344,4.06917984 L8.15395257,6.93999012 C8.09899209,6.96314229 8.06324111,7.01694664 8.06324111,7.07659091 Z" id="Path"></path>
            </g>
        </g>
    </g>
</svg>