<?xml version="1.0" encoding="UTF-8"?>
<svg width="16px" height="15px" viewBox="0 0 16 15" version="1.1" xmlns="http://www.w3.org/2000/svg" xmlns:xlink="http://www.w3.org/1999/xlink">
    <title>503B2F21-DC02-4531-B3F3-90CF97D5D201</title>
    <g id="Page-1" stroke="none" stroke-width="1" fill="none" fill-rule="evenodd">
        <g id="06---Expertise" transform="translate(-42.000000, -685.000000)" fill="#660960" fill-rule="nonzero">
            <g id="building" transform="translate(42.000000, 685.000000)">
                <path d="M8.19174853,1.08722986 L1.28251473,0.0373280943 C0.961886051,-0.0129666012 0.63497053,0.0750491159 0.38978389,0.282514735 C0.14459725,0.496267191 -8.37574934e-16,0.8043222 -8.37574934e-16,1.12495088 L-8.37574934e-16,14.3713163 C-8.37574934e-16,14.7170923 0.282907662,15 0.628683694,15 L2.6719057,15 L2.6719057,11.6994106 C2.6719057,11.0895874 3.16227898,10.5992141 3.77210216,10.5992141 L5.34381139,10.5992141 C5.95363458,10.5992141 6.44400786,11.0895874 6.44400786,11.6994106 L6.44400786,15 L9.11591356,15 L9.11591356,2.17485265 C9.11591356,1.63418468 8.72612967,1.17524558 8.19174853,1.08722986 Z M3.45776031,9.18467583 L2.51473477,9.18467583 C2.25445972,9.18467583 2.043222,8.97343811 2.043222,8.71316306 C2.043222,8.45288802 2.25445972,8.24165029 2.51473477,8.24165029 L3.45776031,8.24165029 C3.71803536,8.24165029 3.92927308,8.45288802 3.92927308,8.71316306 C3.92927308,8.97343811 3.71803536,9.18467583 3.45776031,9.18467583 Z M3.45776031,7.29862475 L2.51473477,7.29862475 C2.25445972,7.29862475 2.043222,7.08738703 2.043222,6.82711198 C2.043222,6.56683694 2.25445972,6.35559921 2.51473477,6.35559921 L3.45776031,6.35559921 C3.71803536,6.35559921 3.92927308,6.56683694 3.92927308,6.82711198 C3.92927308,7.08738703 3.71803536,7.29862475 3.45776031,7.29862475 Z M3.45776031,5.41257367 L2.51473477,5.41257367 C2.25445972,5.41257367 2.043222,5.20133595 2.043222,4.9410609 C2.043222,4.68078585 2.25445972,4.46954813 2.51473477,4.46954813 L3.45776031,4.46954813 C3.71803536,4.46954813 3.92927308,4.68078585 3.92927308,4.9410609 C3.92927308,5.20133595 3.71803536,5.41257367 3.45776031,5.41257367 Z M3.45776031,3.52652259 L2.51473477,3.52652259 C2.25445972,3.52652259 2.043222,3.31528487 2.043222,3.05500982 C2.043222,2.79473477 2.25445972,2.58349705 2.51473477,2.58349705 L3.45776031,2.58349705 C3.71803536,2.58349705 3.92927308,2.79473477 3.92927308,3.05500982 C3.92927308,3.31528487 3.71803536,3.52652259 3.45776031,3.52652259 Z M6.60117878,9.18467583 L5.65815324,9.18467583 C5.39787819,9.18467583 5.18664047,8.97343811 5.18664047,8.71316306 C5.18664047,8.45288802 5.39787819,8.24165029 5.65815324,8.24165029 L6.60117878,8.24165029 C6.86145383,8.24165029 7.07269155,8.45288802 7.07269155,8.71316306 C7.07269155,8.97343811 6.86145383,9.18467583 6.60117878,9.18467583 Z M6.60117878,7.29862475 L5.65815324,7.29862475 C5.39787819,7.29862475 5.18664047,7.08738703 5.18664047,6.82711198 C5.18664047,6.56683694 5.39787819,6.35559921 5.65815324,6.35559921 L6.60117878,6.35559921 C6.86145383,6.35559921 7.07269155,6.56683694 7.07269155,6.82711198 C7.07269155,7.08738703 6.86145383,7.29862475 6.60117878,7.29862475 Z M6.60117878,5.41257367 L5.65815324,5.41257367 C5.39787819,5.41257367 5.18664047,5.20133595 5.18664047,4.9410609 C5.18664047,4.68078585 5.39787819,4.46954813 5.65815324,4.46954813 L6.60117878,4.46954813 C6.86145383,4.46954813 7.07269155,4.68078585 7.07269155,4.9410609 C7.07269155,5.20133595 6.86145383,5.41257367 6.60117878,5.41257367 Z M6.60117878,3.52652259 L5.65815324,3.52652259 C5.39787819,3.52652259 5.18664047,3.31528487 5.18664047,3.05500982 C5.18664047,2.79473477 5.39787819,2.58349705 5.65815324,2.58349705 L6.60117878,2.58349705 C6.86145383,2.58349705 7.07269155,2.79473477 7.07269155,3.05500982 C7.07269155,3.31528487 6.86145383,3.52652259 6.60117878,3.52652259 Z" id="Shape"></path>
                <path d="M14.2208251,6.72777996 L9.74459725,5.79041257 L9.74459725,15 L13.9882122,15 C14.5948919,15 15.0884086,14.5064833 15.0884086,13.8998035 L15.0884086,7.80282908 C15.0884086,7.28353635 14.7344597,6.84157171 14.2208251,6.72777996 Z M12.7308448,13.1139489 L11.7878193,13.1139489 C11.5275442,13.1139489 11.3163065,12.9027112 11.3163065,12.6424361 C11.3163065,12.3821611 11.5275442,12.1709234 11.7878193,12.1709234 L12.7308448,12.1709234 C12.9911198,12.1709234 13.2023576,12.3821611 13.2023576,12.6424361 C13.2023576,12.9027112 12.9911198,13.1139489 12.7308448,13.1139489 Z M12.7308448,11.2278978 L11.7878193,11.2278978 C11.5275442,11.2278978 11.3163065,11.0166601 11.3163065,10.7563851 C11.3163065,10.49611 11.5275442,10.2848723 11.7878193,10.2848723 L12.7308448,10.2848723 C12.9911198,10.2848723 13.2023576,10.49611 13.2023576,10.7563851 C13.2023576,11.0166601 12.9911198,11.2278978 12.7308448,11.2278978 Z M12.7308448,9.34184676 L11.7878193,9.34184676 C11.5275442,9.34184676 11.3163065,9.13060904 11.3163065,8.87033399 C11.3163065,8.61005894 11.5275442,8.39882122 11.7878193,8.39882122 L12.7308448,8.39882122 C12.9911198,8.39882122 13.2023576,8.61005894 13.2023576,8.87033399 C13.2023576,9.13060904 12.9911198,9.34184676 12.7308448,9.34184676 Z" id="Shape"></path>
            </g>
        </g>
    </g>
</svg>