<?xml version="1.0" encoding="UTF-8"?>
<svg width="17px" height="15px" viewBox="0 0 17 15" version="1.1" xmlns="http://www.w3.org/2000/svg" xmlns:xlink="http://www.w3.org/1999/xlink">
    <title>2DE327D1-D993-42E9-8E49-D5412F8D86D1</title>
    <g id="Page-1" stroke="none" stroke-width="1" fill="none" fill-rule="evenodd">
        <g id="05---Current-Auctions" transform="translate(-326.000000, -53.000000)" fill="#7B848A" fill-rule="nonzero">
            <g id="cart" transform="translate(326.000000, 53.000000)">
                <path d="M15.6489574,2.73408511 L2.88912766,2.73408511 L2.69945745,0.621095745 C2.66843617,0.275553191 2.37884043,0.010787234 2.03192553,0.010787234 L0.670212766,0.010787234 C0.30006383,0.010787234 0,0.310851064 0,0.681 C0,1.05114894 0.30006383,1.35121277 0.670212766,1.35121277 L1.41919149,1.35121277 C1.8285,5.9112766 0.770648936,-5.87479787 2.19003191,9.93915957 C2.24473404,10.558117 2.57917021,11.229766 3.15529787,11.6861489 C2.11656383,13.0126596 3.06564894,14.9682447 4.75531915,14.9682447 C6.1577234,14.9682447 7.1468617,13.5695426 6.66593617,12.2448191 L10.3341064,12.2448191 C9.85378723,13.5678511 10.8407872,14.9682447 12.2447234,14.9682447 C13.3651277,14.9682447 14.2766489,14.0567234 14.2766489,12.9363191 C14.2766489,11.8159149 13.3651277,10.9043936 12.2447234,10.9043936 L4.75985106,10.9043936 C4.25074468,10.9043936 3.80709574,10.5972447 3.61560638,10.149734 L14.3265,9.52024468 C14.6189043,9.50307447 14.8663085,9.29792553 14.937383,9.01375532 L16.2991915,3.56684043 C16.404766,3.14447872 16.0850426,2.73408511 15.6489574,2.73408511 Z M4.75531915,13.6278191 C4.37406383,13.6278191 4.06385106,13.3176064 4.06385106,12.9363191 C4.06385106,12.5550319 4.37406383,12.2448191 4.75531915,12.2448191 C5.13660638,12.2448191 5.44681915,12.5550319 5.44681915,12.9363191 C5.44681915,13.3176064 5.13660638,13.6278191 4.75531915,13.6278191 Z M12.2446915,13.6278191 C11.8634043,13.6278191 11.5531915,13.3176064 11.5531915,12.9363191 C11.5531915,12.5550319 11.8634043,12.2448191 12.2446915,12.2448191 C12.6259787,12.2448191 12.9361915,12.5550319 12.9361915,12.9363191 C12.9361915,13.3176064 12.6259787,13.6278191 12.2446915,13.6278191 Z M13.7563723,8.21103191 L3.43519149,8.81757447 L3.00944681,4.07447872 L14.7905745,4.07447872 L13.7563723,8.21103191 Z" id="Shape"></path>
            </g>
        </g>
    </g>
</svg>