<?xml version="1.0" encoding="UTF-8"?>
<svg width="15px" height="20px" viewBox="0 0 15 20" version="1.1" xmlns="http://www.w3.org/2000/svg" xmlns:xlink="http://www.w3.org/1999/xlink">
    <title>05F2CD3F-C3BB-416F-B262-0C6E13A78518</title>
    <g id="Page-1" stroke="none" stroke-width="1" fill="none" fill-rule="evenodd">
        <g id="02---My-Account" transform="translate(-40.000000, -188.000000)" fill="#660960" fill-rule="nonzero">
            <g id="medal" transform="translate(40.000000, 188.000000)">
                <path d="M8.43105469,15.3621484 C8.05894531,15.3621484 7.689375,15.3090234 7.33257813,15.2041797 C7.28457031,15.1900781 7.23519531,15.1829297 7.18582031,15.1829297 C7.13652344,15.1829297 7.08722656,15.1900391 7.03933594,15.2041016 C6.68300781,15.3086328 6.31398438,15.3616406 5.94242188,15.3616406 C4.8559375,15.3616406 3.82363281,14.9125391 3.08613281,14.1248828 L3.08613281,19.4140625 C3.08613281,19.6220703 3.19640625,19.8144922 3.37585938,19.9196484 C3.5553125,20.0248047 3.77707031,20.0269141 3.95855469,19.9252344 L7.1875,18.1153516 L10.4163672,19.9251953 C10.5054297,19.9751172 10.6041406,20.0000317 10.7028516,20.0000317 C10.8052734,20.0000317 10.9076563,19.9731641 10.9990625,19.9196094 C11.1785547,19.8144531 11.2887891,19.6220312 11.2887891,19.4140234 L11.2887891,14.1237109 C10.5512891,14.9123437 9.51824219,15.3620703 8.43105469,15.3621484 Z" id="Path"></path>
                <ellipse id="Oval" cx="7.1875" cy="7.11460937" rx="3.06933594" ry="3.06953125"></ellipse>
                <path d="M13.9640625,5.7603125 C14.1185156,4.68765625 13.6293359,3.61589844 12.7178516,3.02984375 C12.4507031,2.85804687 12.2398047,2.61453125 12.1079297,2.32558594 C11.6579687,1.33972656 10.6670703,0.702578125 9.58347656,0.70234375 C9.26585937,0.702265625 8.95679687,0.611445312 8.68964844,0.4396875 C7.77816406,-0.146367188 6.60011719,-0.146601563 5.68839844,0.4390625 C5.42128906,0.610664062 5.11230469,0.701328125 4.79484375,0.701328125 C4.79457031,0.701328125 4.79425781,0.701328125 4.79394531,0.701328125 C3.71054687,0.701328125 2.71960937,1.33804687 2.26933594,2.32351562 C2.13734375,2.61238281 1.92632812,2.85582031 1.65910156,3.0275 C0.747382812,3.61320312 0.257734375,4.68476562 0.411757812,5.7575 C0.456914062,6.071875 0.410976562,6.39074219 0.278984375,6.67964844 C-0.171367188,7.6653125 -0.003984375,8.83148437 0.70546875,9.65066406 C0.913398437,9.89074219 1.04714844,10.1838281 1.09230469,10.4982031 C1.24628906,11.5708984 2.01757812,12.4614453 3.05722656,12.7669531 C3.36195312,12.8564844 3.63292969,13.0307422 3.84082031,13.2708203 C4.55027344,14.0899609 5.68050781,14.4221094 6.72035156,14.1170312 C7.02507812,14.0276172 7.34726562,14.0276562 7.65195312,14.1172266 C7.90871094,14.1926562 8.17085937,14.2292578 8.43097656,14.2292578 C9.22414062,14.2292578 9.99730469,13.8888672 10.5317969,13.2722266 C10.7398437,13.0322266 11.0108984,12.858125 11.315625,12.7687109 C12.3554297,12.4635937 13.1270703,11.5733984 13.2814844,10.5007812 C13.3267578,10.1864062 13.4606641,9.89335937 13.6686719,9.65335937 C14.3784766,8.83449219 14.5463672,7.66839844 14.0964062,6.68253906 C13.9646094,6.39359375 13.9188281,6.07472656 13.9640625,5.7603125 L13.9640625,5.7603125 Z M7.1875,11.3561328 C4.84886719,11.3561328 2.94628906,9.45339844 2.94628906,7.11464844 C2.94628906,4.77589844 4.84886719,2.873125 7.1875,2.873125 C9.52613281,2.873125 11.4287109,4.77585937 11.4287109,7.11460937 C11.4287109,9.45335937 9.52613281,11.3561328 7.1875,11.3561328 Z" id="Shape"></path>
            </g>
        </g>
    </g>
</svg>