<?xml version="1.0" encoding="UTF-8"?>
<svg width="15px" height="15px" viewBox="0 0 15 15" version="1.1" xmlns="http://www.w3.org/2000/svg" xmlns:xlink="http://www.w3.org/1999/xlink">
    <title>09B911B2-0B72-4290-A98A-1225AC3FF6EC</title>
    <g id="Page-1" stroke="none" stroke-width="1" fill="none" fill-rule="evenodd">
        <g id="04.5---Bank-Pay" transform="translate(-311.000000, -238.000000)" fill="#000000" fill-rule="nonzero">
            <g id="close" transform="translate(311.000000, 238.000000)">
                <path d="M8.32869141,7.50005859 L14.8284082,1.0003125 C15.0572461,0.771474609 15.0572461,0.400458984 14.8284082,0.171650391 C14.5995703,-0.0571582031 14.2285547,-0.0571875 13.9997461,0.171650391 L7.49999268,6.67139648 L1.0002832,0.171650391 C0.771445313,-0.0571875 0.400429688,-0.0571875 0.171621094,0.171650391 C-0.0571875,0.400488281 -0.0572167969,0.771503906 0.171621094,1.0003125 L6.67133789,7.50002197 L0.171621094,13.9997754 C-0.0572167969,14.2286133 -0.0572167969,14.5996289 0.171621094,14.8284375 C0.286025391,14.9428418 0.435996094,15.000022 0.585966797,15.000022 C0.7359375,15.000022 0.885878906,14.9428418 1.0003125,14.8284375 L7.49999268,8.3287207 L13.9997168,14.8284375 C14.1141211,14.9428418 14.2640918,15.000022 14.4140625,15.000022 C14.5640332,15.000022 14.7139746,14.9428418 14.8284082,14.8284375 C15.0572461,14.5995996 15.0572461,14.228584 14.8284082,13.9997754 L8.32869141,7.50005859 Z" id="Path"></path>
            </g>
        </g>
    </g>
</svg>