<?xml version="1.0" encoding="UTF-8"?>
<svg width="100px" height="100px" viewBox="0 0 100 100" version="1.1" xmlns="http://www.w3.org/2000/svg" xmlns:xlink="http://www.w3.org/1999/xlink">
    <title>609CB60C-1191-44DF-8EAA-193467042930</title>
    <g id="Page-1" stroke="none" stroke-width="1" fill="none" fill-rule="evenodd">
        <g id="03.5---ArtWorks-I-Follow" transform="translate(-138.000000, -273.000000)" fill-rule="nonzero">
            <g id="confirm" transform="translate(138.000000, 273.000000)">
                <path d="M50,0 C22.4288941,0 0,22.4288941 0,50 C0,77.5711059 22.4288941,100 50,100 C77.5711059,100 100,77.5711059 100,50 C100,22.4288941 77.5711059,0 50,0 Z" id="Path" fill="#67B016"></path>
                <path d="M75.3417969,39.4042969 L48.2582092,66.4871215 C47.4456787,67.2996521 46.3790895,67.7085877 45.3125,67.7085877 C44.2459105,67.7085877 43.1793213,67.2996521 42.3667908,66.4871215 L28.8253785,52.9457092 C27.1957398,51.3168336 27.1957398,48.6831664 28.8253785,47.0542908 C30.4542541,45.4246521 33.0871582,45.4246521 34.7167969,47.0542908 L45.3125,57.6499939 L69.4503785,33.5128785 C71.0792541,31.8832398 73.7121582,31.8832398 75.3417969,33.5128785 C76.9706727,35.1417541 76.9706727,37.7746582 75.3417969,39.4042969 Z" id="Path" fill="#FAFAFA"></path>
            </g>
        </g>
    </g>
</svg>