<?xml version="1.0" encoding="UTF-8"?>
<svg width="25px" height="25px" viewBox="0 0 25 25" version="1.1" xmlns="http://www.w3.org/2000/svg" xmlns:xlink="http://www.w3.org/1999/xlink">
    <title>40C0787A-3C07-4191-BEA7-125C79A2AC66</title>
    <g id="Page-1" stroke="none" stroke-width="1" fill="none" fill-rule="evenodd">
        <g id="04.2---Address" transform="translate(-13.000000, -108.000000)" fill="#660960" fill-rule="nonzero">
            <g id="correct" transform="translate(13.000000, 108.000000)">
                <path d="M12.5,0 C5.60722354,0 0,5.60722354 0,12.5 C0,19.3927765 5.60722354,25 12.5,25 C19.3927765,25 25,19.3927765 25,12.5 C25,5.60722354 19.3927765,0 12.5,0 Z M18.8354492,9.85107422 L12.0645523,16.6217804 C11.8614197,16.824913 11.5947724,16.9271469 11.328125,16.9271469 C11.0614776,16.9271469 10.7948303,16.824913 10.5916977,16.6217804 L7.20634463,13.2364273 C6.79893496,12.8292084 6.79893496,12.1707916 7.20634463,11.7635727 C7.61356353,11.356163 8.27178955,11.356163 8.67919922,11.7635727 L11.328125,14.4124985 L17.3625946,8.37821963 C17.7698135,7.97080996 18.4280396,7.97080996 18.8354492,8.37821963 C19.2426682,8.78543853 19.2426682,9.44366455 18.8354492,9.85107422 Z" id="Shape"></path>
            </g>
        </g>
    </g>
</svg>