<?xml version="1.0" encoding="UTF-8"?>
<svg width="16px" height="16px" viewBox="0 0 16 16" version="1.1" xmlns="http://www.w3.org/2000/svg" xmlns:xlink="http://www.w3.org/1999/xlink">
    <title>E2CE0BEF-C5C4-4B81-9577-1DED09DC4D37</title>
    <g id="Page-1" stroke="none" stroke-width="1" fill="none" fill-rule="evenodd">
        <g id="02.6---Membership-Types" transform="translate(-33.000000, -223.000000)" fill="#48C657" fill-rule="nonzero">
            <g id="correct" transform="translate(33.000000, 223.000000)">
                <path d="M8,0 C3.58862306,0 0,3.58862306 0,8 C0,12.4113769 3.58862306,16 8,16 C12.4113769,16 16,12.4113769 16,8 C16,3.58862306 12.4113769,0 8,0 Z M12.0546875,6.3046875 L7.72131347,10.6379394 C7.59130859,10.7679443 7.42065431,10.833374 7.25,10.833374 C7.07934569,10.833374 6.90869141,10.7679443 6.77868653,10.6379394 L4.61206056,8.47131347 C4.35131837,8.21069338 4.35131837,7.78930663 4.61206056,7.52868653 C4.87268066,7.26794434 5.29394531,7.26794434 5.5546875,7.52868653 L7.25,9.22399903 L11.1120606,5.36206056 C11.3726807,5.10131838 11.7939453,5.10131838 12.0546875,5.36206056 C12.3153076,5.62268066 12.3153076,6.04394531 12.0546875,6.3046875 Z" id="Shape"></path>
            </g>
        </g>
    </g>
</svg>