<?xml version="1.0" encoding="UTF-8"?>
<svg width="20px" height="20px" viewBox="0 0 20 20" version="1.1" xmlns="http://www.w3.org/2000/svg" xmlns:xlink="http://www.w3.org/1999/xlink">
    <title>C9C13196-E87D-4C96-B0D6-5D879C772FF5</title>
    <g id="Page-1" stroke="none" stroke-width="1" fill="none" fill-rule="evenodd">
        <g id="05---Current-Auctions" transform="translate(-35.000000, -741.000000)" fill="#7B848A" fill-rule="nonzero">
            <g id="bottom-bar" transform="translate(0.000000, 736.000000)">
                <g id="discover" transform="translate(35.000000, 5.000000)">
                    <path d="M9.99217799,11.0913349 C10.6016862,11.0913349 11.0913349,10.5967213 11.0913349,9.99217799 C11.0913349,9.38763466 10.601733,8.89302108 9.99217799,8.89302108 C9.38763466,8.89302108 8.89302108,9.38763466 8.89302108,9.99217799 C8.89302108,10.5967213 9.3876815,11.0913349 9.99217799,11.0913349 Z" id="Path"></path>
                    <path d="M9.99217799,0 C4.47152225,0 0,4.47152225 0,9.99217799 C0,15.5078689 4.47152225,19.984356 9.99217799,19.984356 C15.5128337,19.984356 19.984356,15.5078689 19.984356,9.99217799 C19.984356,4.47152225 15.5128806,0 9.99217799,0 Z M12.1804684,12.1804684 L3.99686183,15.9874941 L7.80388759,7.80388759 L15.9874941,3.99686183 L12.1804684,12.1804684 Z" id="Shape"></path>
                </g>
            </g>
        </g>
    </g>
</svg>