<?xml version="1.0" encoding="UTF-8"?>
<svg width="13px" height="8px" viewBox="0 0 13 8" version="1.1" xmlns="http://www.w3.org/2000/svg" xmlns:xlink="http://www.w3.org/1999/xlink">
    <title>F3E5A211-203C-4EB9-A3C1-F16B640FB25F</title>
    <g id="Page-1" stroke="none" stroke-width="1" fill="none" fill-rule="evenodd">
        <g id="00---Menu" transform="translate(-294.000000, -105.000000)" fill="#660960" fill-rule="nonzero">
            <g id="down" transform="translate(300.257812, 109.242188) rotate(90.000000) translate(-300.257812, -109.242188) translate(296.757812, 103.242188)">
                <path d="M6.36152344,5.67072656 L0.811148438,0.135703125 C0.629296875,-0.0455390625 0.334875,-0.045234375 0.153328125,0.136640625 C-0.028078125,0.318492188 -0.027609375,0.613078125 0.154265625,0.794460937 L5.37426563,6.00004687 L0.154078125,11.2056094 C-0.0277734375,11.3870156 -0.0282421875,11.6814141 0.153140625,11.8632891 C0.244148437,11.9544609 0.363375,12.0000469 0.482601562,12.0000469 C0.601523437,12.0000469 0.72028125,11.9547656 0.811125,11.8642266 L6.36152344,6.32934375 C6.44910937,6.24220312 6.49825781,6.12360937 6.49825781,6.00004687 C6.49825781,5.87648437 6.44896875,5.75803125 6.36152344,5.67072656 Z" id="Path"></path>
            </g>
        </g>
    </g>
</svg>