<svg xmlns="http://www.w3.org/2000/svg" width="20" height="14" fill="none" viewBox="0 0 20 14">
    <path fill="#fff" fill-rule="evenodd" d="M10 0c4.099 0 7.897 2.546 9.916 6.65.112.223.112.477 0 .7C17.898 11.454 14.1 14 10 14S2.103 11.454.083 7.35c-.11-.223-.11-.477 0-.7C2.103 2.546 5.901 0 10 0zM2.103 7c1.73 3.246 4.728 5.25 7.897 5.25 3.169 0 6.168-2.004 7.897-5.25C16.167 3.754 13.17 1.75 10 1.75 6.831 1.75 3.832 3.754 2.103 7zM10 3.5C7.792 3.5 6.001 5.067 6.001 7s1.79 3.5 3.999 3.5c2.208 0 3.999-1.567 3.999-3.5 0-.928-.422-1.819-1.172-2.475C12.077 3.87 11.06 3.5 10 3.5zM8 7c0 .966.896 1.75 2 1.75s2-.784 2-1.75-.896-1.75-2-1.75S8 6.034 8 7z" clip-rule="evenodd"/>
</svg>
