<?xml version="1.0" encoding="UTF-8"?>
<svg width="25px" height="25px" viewBox="0 0 25 25" version="1.1" xmlns="http://www.w3.org/2000/svg" xmlns:xlink="http://www.w3.org/1999/xlink">
    <title>8671D9C3-0D7D-448D-91B2-3AD6293F9A53</title>
    <g id="Page-1" stroke="none" stroke-width="1" fill="none" fill-rule="evenodd">
        <g id="23---Contact" transform="translate(-46.000000, -770.000000)" fill="#660960" fill-rule="nonzero">
            <g id="fax" transform="translate(46.000000, 770.000000)">
                <path d="M8.7890625,6.640625 C8.7890625,5.02485352 7.47514648,3.7109375 5.859375,3.7109375 C4.24360352,3.7109375 2.9296875,5.02485352 2.9296875,6.640625 L2.9296875,21.3378906 C2.9296875,22.9536621 4.24360352,24.2675781 5.859375,24.2675781 C7.47514648,24.2675781 8.7890625,22.9536621 8.7890625,21.3378906 L8.7890625,6.640625 Z" id="Path"></path>
                <polygon id="Path" points="13.2324219 10.3515625 20.5566406 10.3515625 20.5566406 11.8164062 13.2324219 11.8164062"></polygon>
                <path d="M24.2675781,5.90820312 L10.1798828,5.90820312 C10.220459,6.14760742 10.2539062,6.38984375 10.2539062,6.640625 L10.2539062,21.3378906 C10.2539062,22.8666504 9.46738281,24.2125 8.2796875,25 L24.2675781,25 C24.6724121,25 25,24.6724121 25,24.2675781 L25,6.640625 C25,6.23579102 24.6724121,5.90820312 24.2675781,5.90820312 Z M13.9648438,22.0703125 C13.5603516,22.0703125 13.2324219,21.7423828 13.2324219,21.3378906 C13.2324219,20.9333008 13.5603516,20.6054688 13.9648438,20.6054688 C14.3693359,20.6054688 14.6972656,20.9333008 14.6972656,21.3378906 C14.6972656,21.7423828 14.3693359,22.0703125 13.9648438,22.0703125 Z M13.9648438,19.140625 C13.5603516,19.140625 13.2324219,18.8126953 13.2324219,18.4082031 C13.2324219,18.0036133 13.5603516,17.6757812 13.9648438,17.6757812 C14.3693359,17.6757812 14.6972656,18.0036133 14.6972656,18.4082031 C14.6972656,18.8126953 14.3693359,19.140625 13.9648438,19.140625 Z M13.9648438,16.2109375 C13.5603516,16.2109375 13.2324219,15.8830078 13.2324219,15.4785156 C13.2324219,15.0739258 13.5603516,14.7460938 13.9648438,14.7460938 C14.3693359,14.7460938 14.6972656,15.0739258 14.6972656,15.4785156 C14.6972656,15.8830078 14.3693359,16.2109375 13.9648438,16.2109375 Z M16.8945312,22.0703125 C16.4900391,22.0703125 16.1621094,21.7423828 16.1621094,21.3378906 C16.1621094,20.9333008 16.4900391,20.6054688 16.8945312,20.6054688 C17.2990234,20.6054688 17.6269531,20.9333008 17.6269531,21.3378906 C17.6269531,21.7423828 17.2990234,22.0703125 16.8945312,22.0703125 Z M16.8945312,19.140625 C16.4900391,19.140625 16.1621094,18.8126953 16.1621094,18.4082031 C16.1621094,18.0036133 16.4900391,17.6757812 16.8945312,17.6757812 C17.2990234,17.6757812 17.6269531,18.0036133 17.6269531,18.4082031 C17.6269531,18.8126953 17.2990234,19.140625 16.8945312,19.140625 Z M16.8945312,16.2109375 C16.4900391,16.2109375 16.1621094,15.8830078 16.1621094,15.4785156 C16.1621094,15.0739258 16.4900391,14.7460938 16.8945312,14.7460938 C17.2990234,14.7460938 17.6269531,15.0739258 17.6269531,15.4785156 C17.6269531,15.8830078 17.2990234,16.2109375 16.8945312,16.2109375 Z M19.8242188,22.0703125 C19.4197266,22.0703125 19.0917969,21.7423828 19.0917969,21.3378906 C19.0917969,20.9333008 19.4197266,20.6054688 19.8242188,20.6054688 C20.2287109,20.6054688 20.5566406,20.9333008 20.5566406,21.3378906 C20.5566406,21.7423828 20.2287109,22.0703125 19.8242188,22.0703125 Z M19.8242188,19.140625 C19.4197266,19.140625 19.0917969,18.8126953 19.0917969,18.4082031 C19.0917969,18.0036133 19.4197266,17.6757812 19.8242188,17.6757812 C20.2287109,17.6757812 20.5566406,18.0036133 20.5566406,18.4082031 C20.5566406,18.8126953 20.2287109,19.140625 19.8242188,19.140625 Z M19.8242188,16.2109375 C19.4197266,16.2109375 19.0917969,15.8830078 19.0917969,15.4785156 C19.0917969,15.0739258 19.4197266,14.7460938 19.8242188,14.7460938 C20.2287109,14.7460938 20.5566406,15.0739258 20.5566406,15.4785156 C20.5566406,15.8830078 20.2287109,16.2109375 19.8242188,16.2109375 Z M22.0214844,12.5488281 C22.0214844,12.9536621 21.6938965,13.28125 21.2890625,13.28125 L12.5,13.28125 C12.095166,13.28125 11.7675781,12.9536621 11.7675781,12.5488281 L11.7675781,9.61914062 C11.7675781,9.21430664 12.095166,8.88671875 12.5,8.88671875 L21.2890625,8.88671875 C21.6938965,8.88671875 22.0214844,9.21430664 22.0214844,9.61914062 L22.0214844,12.5488281 Z" id="Shape"></path>
                <path d="M21.2890625,0 L12.5,0 C12.095166,0 11.7675781,0.327587891 11.7675781,0.732421875 L11.7675781,4.39453125 L22.0214844,4.39453125 L22.0214844,0.732421875 C22.0214844,0.327587891 21.6938965,0 21.2890625,0 Z M18.359375,2.9296875 L15.4296875,2.9296875 C15.0248535,2.9296875 14.6972656,2.60209961 14.6972656,2.19726562 C14.6972656,1.79243164 15.0248535,1.46484375 15.4296875,1.46484375 L18.359375,1.46484375 C18.764209,1.46484375 19.0917969,1.79243164 19.0917969,2.19726562 C19.0917969,2.60209961 18.764209,2.9296875 18.359375,2.9296875 Z" id="Shape"></path>
                <path d="M1.46484375,21.3378906 L1.46484375,6.640625 C1.46484375,6.38984375 1.49829102,6.14760742 1.53886719,5.90820312 L0.732421875,5.90820312 C0.327587891,5.90820312 0,6.23579102 0,6.640625 L0,24.2675781 C0,24.6724121 0.327587891,25 0.732421875,25 L3.4390625,25 C2.25136719,24.2125 1.46484375,22.8666504 1.46484375,21.3378906 Z" id="Path"></path>
            </g>
        </g>
    </g>
</svg>