<?xml version="1.0" encoding="UTF-8"?>
<svg width="35px" height="35px" viewBox="0 0 35 35" version="1.1" xmlns="http://www.w3.org/2000/svg" xmlns:xlink="http://www.w3.org/1999/xlink">
    <title>8491FF77-19BA-43D5-A0DC-DA563FD64F72</title>
    <g id="Page-1" stroke="none" stroke-width="1" fill="none" fill-rule="evenodd">
        <g id="09---From-Past-to-Today" transform="translate(-315.000000, -228.000000)">
            <g id="forward2" transform="translate(315.000000, 228.000000)">
                <circle id="Oval" stroke="#D9DEE1" stroke-width="0.5" fill="#660960" transform="translate(17.500000, 17.500000) scale(-1, 1) translate(-17.500000, -17.500000) " cx="17.5" cy="17.5" r="17.25"></circle>
                <g id="724927" transform="translate(14.000000, 12.000000)" fill="#FAFAFA" fill-rule="nonzero">
                    <path d="M7.6014931,4.68696844 L3.51908902,0.150963901 C3.43199773,0.0548006048 3.31043281,0.000368550369 3.18161028,0.000368550369 L0.46000756,0.000368550369 C0.281288981,0.000368550369 0.118900019,0.105603856 0.0454167454,0.268900019 C-0.0271593272,0.433103383 0.00277830278,0.624522775 0.122528823,0.756974107 L3.93186543,4.98997354 L0.122528823,9.22206577 C0.00277830278,9.35542431 -0.0280665281,9.5468437 0.0454167454,9.71013986 C0.118900019,9.87434322 0.281288981,9.97957853 0.46000756,9.97957853 L3.18161028,9.97957853 C3.31043281,9.97957853 3.43199773,9.92423927 3.51908902,9.82989038 L7.6014931,5.29388584 C7.75662446,5.12151767 7.75662446,4.85842941 7.6014931,4.68696844 Z" id="Path"></path>
                </g>
            </g>
        </g>
    </g>
</svg>