<?xml version="1.0" encoding="UTF-8"?>
<svg width="20px" height="20px" viewBox="0 0 20 20" version="1.1" xmlns="http://www.w3.org/2000/svg" xmlns:xlink="http://www.w3.org/1999/xlink">
    <title>50D53E81-A496-4109-ADCB-7A5E000A4B61</title>
    <g id="Page-1" stroke="none" stroke-width="1" fill="none" fill-rule="evenodd">
        <g id="04---Cart" transform="translate(-319.000000, -132.000000)" fill="#F44336" fill-rule="nonzero">
            <g id="incorrect" transform="translate(319.000000, 132.000000)">
                <path d="M10,0 C15.5142212,0 20,4.48577883 20,10 C20,15.5142212 15.5142212,20 10,20 C4.48577883,20 0,15.5142212 0,10 C0,4.48577883 4.48577883,0 10,0 Z M13.6825562,6.31744383 C13.3566284,5.99166871 12.8300476,5.99166871 12.5041199,6.31744383 L12.5041199,6.31744383 L10,8.82171633 L7.49588012,6.31744383 C7.16995238,5.99166871 6.64337156,5.99166871 6.31744383,6.31744383 C5.99166871,6.64337156 5.99166871,7.16995238 6.31744383,7.49588012 L6.31744383,7.49588012 L8.82171633,10 L6.31744383,12.5041199 C5.99166871,12.8300476 5.99166871,13.3566284 6.31744383,13.6825562 C6.47994996,13.8450623 6.69326781,13.9266968 6.90673828,13.9266968 C7.12005617,13.9266968 7.33337402,13.8450623 7.49588012,13.6825562 L7.49588012,13.6825562 L10,11.1782837 L12.5041199,13.6825562 C12.666626,13.8450623 12.8799438,13.9266968 13.0932617,13.9266968 C13.3067322,13.9266968 13.52005,13.8450623 13.6825562,13.6825562 C14.0083313,13.3566284 14.0083313,12.8300476 13.6825562,12.5041199 L13.6825562,12.5041199 L11.1782837,10 L13.6825562,7.49588012 C14.0083313,7.16995238 14.0083313,6.64337156 13.6825562,6.31744383 Z" id="Combined-Shape"></path>
            </g>
        </g>
    </g>
</svg>