<?xml version="1.0" encoding="UTF-8"?>
<svg width="16px" height="16px" viewBox="0 0 16 16" version="1.1" xmlns="http://www.w3.org/2000/svg" xmlns:xlink="http://www.w3.org/1999/xlink">
    <title>43B44919-1E8C-43A4-B3CA-57695A93FA87</title>
    <g id="Page-1" stroke="none" stroke-width="1" fill="none" fill-rule="evenodd">
        <g id="02.6---Membership-Types" transform="translate(-33.000000, -264.000000)" fill="#F44336" fill-rule="nonzero">
            <g id="incorrect" transform="translate(33.000000, 264.000000)">
                <path d="M8,0 C12.4113769,0 16,3.58862306 16,8 C16,12.4113769 12.4113769,16 8,16 C3.58862306,16 0,12.4113769 0,8 C0,3.58862306 3.58862306,0 8,0 Z M10.9460449,5.05395506 C10.6853027,4.79333497 10.2640381,4.79333497 10.0032959,5.05395506 L10.0032959,5.05395506 L8,7.05737306 L5.99670409,5.05395506 C5.73596191,4.79333497 5.31469725,4.79333497 5.05395506,5.05395506 C4.79333497,5.31469725 4.79333497,5.73596191 5.05395506,5.99670409 L5.05395506,5.99670409 L7.05737306,8 L5.05395506,10.0032959 C4.79333497,10.2640381 4.79333497,10.6853028 5.05395506,10.9460449 C5.18395997,11.0760498 5.35461425,11.1413574 5.52539063,11.1413574 C5.69604494,11.1413574 5.86669922,11.0760498 5.99670409,10.9460449 L5.99670409,10.9460449 L8,8.94262694 L10.0032959,10.9460449 C10.1333008,11.0760498 10.3039551,11.1413574 10.4746094,11.1413574 C10.6453857,11.1413574 10.81604,11.0760498 10.9460449,10.9460449 C11.206665,10.6853028 11.206665,10.2640381 10.9460449,10.0032959 L10.9460449,10.0032959 L8.94262694,8 L10.9460449,5.99670409 C11.206665,5.73596191 11.206665,5.31469725 10.9460449,5.05395506 Z" id="Combined-Shape"></path>
            </g>
        </g>
    </g>
</svg>