<svg xmlns="http://www.w3.org/2000/svg" width="140" height="140" fill="none" viewBox="0 0 140 140">
    <path fill="#fff" d="M131.066 2.514C129.981.941 128.193 0 126.282 0H63.867C54.264 0 46.45 7.815 46.45 17.418v4.523c.226.204.487.36.702.581l23.225 23.224c3.291 3.286 5.103 7.664 5.103 12.314 0 4.652-1.812 9.03-5.103 12.316L47.15 93.6c-.215.214-.476.372-.702.58v10.329c0 9.604 7.815 17.419 17.418 17.419h20.32c2.41 0 4.57-1.487 5.424-3.739L131.705 7.874c.685-1.783.441-3.786-.639-5.36z" opacity=".4"/>
    <path fill="#fff" d="M32.612 86.65c-2.165-.9-3.581-3.02-3.581-5.365V63.867H5.806C2.6 63.867 0 61.266 0 58.06c0-3.204 2.601-5.805 5.806-5.805H29.03V34.836c0-2.345 1.416-4.465 3.581-5.364 2.172-.9 4.669-.4 6.33 1.26l23.223 23.224c2.271 2.27 2.271 5.94 0 8.21L38.941 85.39c-1.66 1.66-4.157 2.16-6.329 1.26zM124.035.575l-34.882 11.63c-4.709 1.625-7.868 6.055-7.868 11.019v104.509c0 6.405 5.208 11.613 11.612 11.613 1.243 0 2.422-.18 3.698-.575l34.884-11.63c4.708-1.625 7.867-6.055 7.867-11.019V11.612c0-7.647-7.438-13.459-15.311-11.037z"/>
</svg>
