<?xml version="1.0" encoding="UTF-8"?>
<svg width="15px" height="11px" viewBox="0 0 15 11" version="1.1" xmlns="http://www.w3.org/2000/svg" xmlns:xlink="http://www.w3.org/1999/xlink">
    <title>66EA8D2B-3B02-4F63-9A88-D316E14E89D6</title>
    <g id="Page-1" stroke="none" stroke-width="1" fill="none" fill-rule="evenodd">
        <g id="06---Expertise" transform="translate(-43.000000, -411.000000)" fill="#660960" fill-rule="nonzero">
            <g id="mail" transform="translate(43.000000, 411.000000)">
                <path d="M6.76464844,5.41026274 C7.15631836,5.66490401 7.84356445,5.66493258 8.23532227,5.41023417 C8.23538086,5.4102056 8.23546875,5.41014846 8.23552734,5.41011989 L14.9112598,1.07007615 C14.6922949,0.452514648 14.0904199,0.00762809591 13.3836621,0.00762809591 L1.61619141,0.00762809591 C0.909404297,0.00762809591 0.307558594,0.452514648 0.0885644531,1.07007615 L6.76444336,5.41014846 C6.76453125,5.4102056 6.76458984,5.4102056 6.76464844,5.41026274 Z" id="Path"></path>
                <path d="M8.72302734,6.12327543 C8.72293945,6.12333257 8.72288086,6.12338971 8.72282227,6.12341828 C8.37999023,6.3462901 7.93989258,6.4577403 7.49994141,6.4577403 C7.05990234,6.4577403 6.61998047,6.34631867 6.27711914,6.12338971 C6.27706055,6.12336114 6.27703125,6.12333257 6.27697266,6.123304 L0,2.04255839 L0,9.38701484 C0,10.2560178 0.725009766,10.9630023 1.61619141,10.9630023 L13.38375,10.9630023 C14.2749023,10.9630023 14.9998828,10.2560178 14.9998828,9.38701484 L14.9998828,2.04255839 L8.72302734,6.12327543 Z" id="Path"></path>
            </g>
        </g>
    </g>
</svg>