<?xml version="1.0" encoding="UTF-8"?>
<svg width="35px" height="48px" viewBox="0 0 35 48" version="1.1" xmlns="http://www.w3.org/2000/svg" xmlns:xlink="http://www.w3.org/1999/xlink">
    <title>3B0FC650-AD22-4FC4-BEC1-398BCBF6A2BB</title>
    <g id="Page-1" stroke="none" stroke-width="1" fill="none" fill-rule="evenodd">
        <g id="02.6---Membership-Types" transform="translate(-258.000000, -448.000000)" fill="#FDA702" fill-rule="nonzero">
            <g id="medal" transform="translate(258.000000, 448.000000)">
                <path d="M20.2345312,36.8691562 C19.3414687,36.8691562 18.4545,36.7416562 17.5981875,36.4900312 C17.4829687,36.4561875 17.3644687,36.4390312 17.2459687,36.4390312 C17.1276562,36.4390312 17.0093437,36.4560937 16.8944062,36.4898437 C16.0392187,36.7407187 15.1535625,36.8679375 14.2618125,36.8679375 C11.65425,36.8679375 9.17671875,35.7900937 7.40671875,33.8997187 L7.40671875,46.59375 C7.40671875,47.0929687 7.671375,47.5547812 8.1020625,47.8071562 C8.53275,48.0595312 9.06496875,48.0645937 9.50053125,47.8205625 L17.25,43.4768437 L24.9992812,47.8204687 C25.2130312,47.9402812 25.4499375,48.0000761 25.6868437,48.0000761 C25.9326562,48.0000761 26.178375,47.9355937 26.39775,47.8070625 C26.8285312,47.5546875 27.0930937,47.092875 27.0930937,46.5936562 L27.0930937,33.8969062 C25.3230937,35.789625 22.8437812,36.8689687 20.2345312,36.8691562 Z" id="Path"></path>
                <ellipse id="Oval" cx="17.25" cy="17.0750625" rx="7.36640625" ry="7.366875"></ellipse>
                <path d="M33.51375,13.82475 C33.8844375,11.250375 32.7104062,8.67815625 30.5228437,7.271625 C29.8816875,6.8593125 29.3755312,6.274875 29.0590312,5.58140625 C27.979125,3.21534375 25.6009687,1.6861875 23.0003437,1.685625 C22.2380625,1.6854375 21.4963125,1.46746875 20.8551562,1.05525 C18.6675937,-0.35128125 15.8402812,-0.35184375 13.6521562,1.05375 C13.0110937,1.46559375 12.2695312,1.6831875 11.507625,1.6831875 C11.5069687,1.6831875 11.5062187,1.6831875 11.5054687,1.6831875 C8.9053125,1.6831875 6.5270625,3.2113125 5.44640625,5.5764375 C5.129625,6.26971875 4.6231875,6.85396875 3.98184375,7.266 C1.79371875,8.6716875 0.6185625,11.2434375 0.98821875,13.818 C1.09659375,14.5725 0.98634375,15.3377812 0.6695625,16.0311562 C-0.41128125,18.39675 -0.0095625,21.1955625 1.693125,23.1615937 C2.19215625,23.7377812 2.51315625,24.4411875 2.62153125,25.1956875 C2.99109375,27.7701562 4.8421875,29.9074687 7.33734375,30.6406875 C8.0686875,30.8555625 8.71903125,31.2737812 9.21796875,31.8499687 C10.9206562,33.8159062 13.6332187,34.6130625 16.1288437,33.880875 C16.8601875,33.6662812 17.6334375,33.666375 18.3646875,33.8813437 C18.9809062,34.062375 19.6100625,34.1502187 20.2343437,34.1502187 C22.1379375,34.1502187 23.9935312,33.3332812 25.2763125,31.8533437 C25.775625,31.2773437 26.4261562,30.8595 27.1575,30.6449062 C29.6530312,29.912625 31.5049687,27.7761562 31.8755625,25.201875 C31.9842187,24.447375 32.3055937,23.7440625 32.8048125,23.1680625 C34.5083437,21.2027812 34.9112812,18.4041562 33.831375,16.0380937 C33.5150625,15.344625 33.4051875,14.5793437 33.51375,13.82475 L33.51375,13.82475 Z M17.25,27.2547187 C11.6372812,27.2547187 7.07109375,22.6881562 7.07109375,17.0751562 C7.07109375,11.4621562 11.6372812,6.8955 17.25,6.8955 C22.8627187,6.8955 27.4289062,11.4620625 27.4289062,17.0750625 C27.4289062,22.6880625 22.8627187,27.2547187 17.25,27.2547187 Z" id="Shape"></path>
            </g>
        </g>
    </g>
</svg>