<?xml version="1.0" encoding="UTF-8"?>
<svg width="22px" height="15px" viewBox="0 0 22 15" version="1.1" xmlns="http://www.w3.org/2000/svg" xmlns:xlink="http://www.w3.org/1999/xlink">
    <title>043CBD87-5E41-4876-8B45-04C0C1A86EE7</title>
    <g id="Page-1" stroke="none" stroke-width="1" fill="none" fill-rule="evenodd">
        <g id="01---Homepage" transform="translate(-24.000000, -53.000000)" fill="#7B848A" fill-rule="nonzero">
            <g id="menu" transform="translate(24.000000, 53.000000)">
                <path d="M20.5988421,0.00351593986 L0.895620084,0.00351593986 C0.400974574,0.00351593986 4.40349511e-13,0.404490514 4.40349511e-13,0.899083547 C4.40349511e-13,1.39367658 0.400974574,1.79470363 0.895620084,1.79470363 L20.5988946,1.79470363 C21.0935401,1.79470363 21.4945147,1.39372906 21.4945147,0.899083547 C21.4945147,0.404438037 21.0934876,0.00351593986 20.5988421,0.00351593986 Z" id="Path"></path>
                <path d="M20.5988421,6.53154574 L0.895620084,6.53154574 C0.400974574,6.53154574 4.40349511e-13,6.93252031 4.40349511e-13,7.42716582 C4.40349511e-13,7.92181133 0.400974574,8.3227859 0.895620084,8.3227859 L20.5988946,8.3227859 C21.0935401,8.3227859 21.4945147,7.92181133 21.4945147,7.42716582 C21.4945147,6.93252031 21.0934876,6.53154574 20.5988421,6.53154574 Z" id="Path"></path>
                <path d="M20.5988421,13.059628 L0.895620084,13.059628 C0.400974574,13.059628 4.40349511e-13,13.4606026 4.40349511e-13,13.9552481 C4.40349511e-13,14.4498936 0.400974574,14.8508682 0.895620084,14.8508682 L20.5988946,14.8508682 C21.0935401,14.8508682 21.4945147,14.4498936 21.4945147,13.9552481 C21.4945147,13.4606026 21.0934876,13.059628 20.5988421,13.059628 Z" id="Path"></path>
            </g>
        </g>
    </g>
</svg>