<?xml version="1.0" encoding="UTF-8"?>
<svg width="16px" height="20px" viewBox="0 0 16 20" version="1.1" xmlns="http://www.w3.org/2000/svg" xmlns:xlink="http://www.w3.org/1999/xlink">
    <title>385BA4FA-2CC9-409B-B83E-13DB22473EC8</title>
    <g id="Page-1" stroke="none" stroke-width="1" fill="none" fill-rule="evenodd">
        <g id="01---Homepage" transform="translate(-131.000000, -1302.000000)" fill="#660960" fill-rule="nonzero">
            <g id="bottom-bar" transform="translate(0.000000, 1296.000000)">
                <g id="offers" transform="translate(131.000000, 6.000000)">
                    <path d="M11.6738538,3.71175906 C9.88831767,1.57671207 8.12580088,0.189027431 8.05175523,0.131095339 C7.64941492,-0.183617878 7.05962018,0.103970842 7.05962018,0.614502206 L7.05962018,3.31390754 C7.05962018,4.7078074 5.21496259,5.19835028 4.52365241,3.98684059 C4.30868981,3.61108767 3.78599655,3.57149434 3.5154038,3.90205256 C1.6577019,6.16915404 0.00034529062,9.02766162 0.00034529062,11.970727 C0.00034529062,16.2016881 3.44250911,19.6438519 7.67347017,19.6438519 C11.9044312,19.6438519 15.3465951,16.2016881 15.3465951,11.970727 C15.3465951,8.95150585 13.6032994,6.01914445 11.6738538,3.71175906 Z M4.29729522,9.82225206 C4.29729522,9.14509879 4.84822559,8.59455208 5.5249952,8.59455208 C6.20176482,8.59455208 6.75269519,9.14509879 6.75269519,9.82225206 C6.75269519,10.4994053 6.20176482,11.049952 5.5249952,11.049952 C4.84822559,11.049952 4.29729522,10.4994053 4.29729522,9.82225206 Z M6.00955304,15.1098024 C5.80253213,15.3766353 5.41672741,15.4263188 5.14824477,15.2176098 C4.88045271,15.0092845 4.83249568,14.62371 5.04043737,14.3563016 L9.3373873,8.83165164 C9.54571264,8.56385958 9.93128717,8.51590255 10.1986956,8.72384424 C10.4664876,8.93216958 10.5144447,9.3177441 10.306503,9.5851525 L6.00955304,15.1098024 Z M9.82194514,15.346902 C9.14517552,15.346902 8.59424516,14.7963553 8.59424516,14.119202 C8.59424516,13.4420487 9.14517552,12.891502 9.82194514,12.891502 C10.4987148,12.891502 11.0496451,13.4420487 11.0496451,14.119202 C11.0496451,14.7963553 10.4987148,15.346902 9.82194514,15.346902 Z" id="Shape"></path>
                </g>
            </g>
        </g>
    </g>
</svg>