<?xml version="1.0" encoding="UTF-8"?>
<svg width="170px" height="100px" viewBox="0 0 170 100" version="1.1" xmlns="http://www.w3.org/2000/svg" xmlns:xlink="http://www.w3.org/1999/xlink">
    <title>DACFD0A4-3F6F-48B8-91E8-9532B8F5E09B</title>
    <defs>
        <linearGradient x1="50.0078116%" y1="100.00269%" x2="50.0078116%" y2="-0.106605991%" id="linearGradient-1">
            <stop stop-color="#808080" stop-opacity="0.25" offset="0%"></stop>
            <stop stop-color="#808080" stop-opacity="0.12" offset="54%"></stop>
            <stop stop-color="#808080" stop-opacity="0.1" offset="100%"></stop>
        </linearGradient>
    </defs>
    <g id="Page-1" stroke="none" stroke-width="1" fill="none" fill-rule="evenodd" opacity="0.492954799">
        <g id="04---Cart" transform="translate(-103.000000, -471.000000)">
            <g id="offer-illus" transform="translate(103.000000, 471.000000)">
                <g id="Group" opacity="0.1" transform="translate(109.168854, 0.000000)" fill-rule="nonzero">
                    <ellipse id="Oval" fill="#3F3D56" cx="15.8205599" cy="92.9615923" rx="3.28547682" ry="4.29982502"></ellipse>
                    <path d="M18.420385,74.5664917 C18.8806846,73.7676188 19.1194337,72.8603721 19.111986,71.9384077 C19.111986,69.5587052 17.6410324,67.6385827 15.8265092,67.6385827 C14.011986,67.6385827 12.5425197,69.5631671 12.5425197,71.9384077 C12.5332634,72.8598255 12.7699494,73.7670363 13.2281715,74.5664917 C12.3139649,76.198762 12.3139649,78.188902 13.2281715,79.8211724 C12.3139892,81.4539786 12.3139892,83.4445341 13.2281715,85.0773403 C12.7699494,85.8767957 12.5332634,86.7840065 12.5425197,87.7054243 C12.5425197,90.0851269 14.0134733,92.0052493 15.8265092,92.0052493 C17.6395451,92.0052493 19.111986,90.0806649 19.111986,87.7054243 C19.1212423,86.7840065 18.8845563,85.8767957 18.4263342,85.0773403 C19.3405165,83.4445341 19.3405165,81.4539786 18.4263342,79.8211724 C19.3405408,78.188902 19.3405408,76.198762 18.4263342,74.5664917 L18.420385,74.5664917 Z" id="Path" fill="#3F3D56"></path>
                    <ellipse id="Oval" fill="#3F3D56" cx="15.8205599" cy="66.683727" rx="3.28547682" ry="4.29982502"></ellipse>
                    <ellipse id="Oval" fill="#3F3D56" cx="15.8205599" cy="61.4275591" rx="3.28547682" ry="4.29982502"></ellipse>
                    <path d="M28.1176728,25.4613298 C28.5660299,24.8897055 28.9745188,24.2879048 29.340245,23.6601925 L20.7138233,22.2427822 L30.0496938,22.3126859 C31.8579579,18.374611 31.9655397,13.8658562 30.3471566,9.84601925 L17.8209974,16.3396325 L29.3744532,7.85301837 C26.4233916,2.76013203 20.8767212,-0.259949864 14.9975147,0.0249831329 C9.11830823,0.30991613 3.88968066,3.85221781 1.44494152,9.20660911 C-0.99979761,14.5610004 -0.2518415,20.8321254 3.38363955,25.4613298 C2.68454842,26.3505573 2.08318566,27.3124386 1.58993876,28.3303587 L12.7938758,34.151706 L0.847769029,30.135958 C-0.859986196,35.1718096 0.0910999845,40.7295097 3.37620297,44.9109361 C-1.69745976,51.3612921 -0.961387202,60.6279063 5.0669656,66.1963988 C11.0953184,71.7648912 20.3911208,71.7648912 26.4194736,66.1963988 C32.4478264,60.6279063 33.183899,51.3612921 28.1102362,44.9109361 C32.600195,39.2028964 32.600195,31.1634203 28.1102362,25.4553806 L28.1176728,25.4613298 Z" id="Path" fill="#660960"></path>
                    <path d="M0.0161155474,35.1898513 C0.0109036699,38.7189569 1.19743566,42.1464831 3.38363955,44.9168854 C-1.69002319,51.3672414 -0.953950632,60.6338556 5.07440217,66.202348 C11.102755,71.7708405 20.3985574,71.7708405 26.4269102,66.202348 C32.455263,60.6338556 33.1913355,51.3672414 28.1176728,44.9168854 C30.2266842,42.23972 0.0161155474,33.4229221 0.0161155474,35.1898513 Z" id="Path" fill="#000000"></path>
                </g>
                <g id="Group" opacity="0.1" transform="translate(23.202100, 33.315836)" fill-rule="nonzero">
                    <ellipse id="Oval" fill="#3F3D56" cx="9.63928259" cy="56.7291339" rx="1.99895013" ry="2.61767279"></ellipse>
                    <path d="M11.2292213,45.5311461 C11.5082583,45.0443085 11.6525197,44.4919056 11.6471566,43.9307962 C11.6471566,42.4851269 10.7547682,41.3131234 9.64671916,41.3131234 C8.53867017,41.3131234 7.64776903,42.4851269 7.64776903,43.9307962 C7.64195357,44.4917692 7.78569922,45.0441631 8.06421697,45.5311461 C7.50908677,46.5253053 7.50908677,47.7361995 8.06421697,48.7303587 C7.50908677,49.7245179 7.50908677,50.9354121 8.06421697,51.9295713 C7.78548541,52.4159261 7.64171486,52.9679024 7.64776903,53.5284339 C7.64776903,54.9755906 8.54015748,56.1475941 9.64671916,56.1475941 C10.7532808,56.1475941 11.6471566,54.9755906 11.6471566,53.5284339 C11.6527586,52.9677656 11.5084722,52.4157804 11.2292213,51.9295713 C11.7860867,50.9358644 11.7860867,49.7240656 11.2292213,48.7303587 C11.7860867,47.7366518 11.7860867,46.524853 11.2292213,45.5311461 L11.2292213,45.5311461 Z" id="Path" fill="#3F3D56"></path>
                    <ellipse id="Oval" fill="#3F3D56" cx="9.63928259" cy="40.7315836" rx="1.99895013" ry="2.61767279"></ellipse>
                    <ellipse id="Oval" fill="#3F3D56" cx="9.63928259" cy="37.532371" rx="1.99895013" ry="2.61767279"></ellipse>
                    <path d="M2.15660542,15.636133 C1.8836058,15.2884327 1.63512052,14.9221654 1.41294838,14.5399825 L6.66762905,13.6773403 L0.984601925,13.7204724 C-0.114953942,11.3243314 -0.181103802,8.58153233 0.801662292,6.1351706 L8.42117235,10.0929134 L1.39063867,4.91706037 C3.18792926,1.81880057 6.56369726,-0.0177807436 10.1412899,0.156282191 C13.7188826,0.330345126 16.9004155,2.48596306 18.3884459,5.7440657 C19.8764763,9.00216834 19.4223257,12.8182642 17.2111986,15.636133 C17.6367621,16.176731 18.0027751,16.7616536 18.3028871,17.3807524 L11.4820647,20.9265092 L18.7550306,18.4858268 C19.7927398,21.5525486 19.2120684,24.9358826 17.2111986,27.4811024 C20.29951,31.4078404 19.8512327,37.0487231 16.1814904,40.4384031 C12.5117481,43.828083 6.85308127,43.828083 3.18333898,40.4384031 C-0.486403308,37.0487231 -0.934680558,31.4078404 2.1536308,27.4811024 C-0.57926772,24.0056847 -0.57926772,19.1115506 2.1536308,15.636133 L2.15660542,15.636133 Z" id="Path" fill="#660960"></path>
                    <path d="M19.2608666,21.5586177 C19.2638921,23.7072355 18.5417426,25.7940275 17.2111986,27.4811024 C20.29951,31.4078404 19.8512327,37.0487231 16.1814904,40.4384031 C12.5117481,43.828083 6.85308127,43.828083 3.18333898,40.4384031 C-0.486403308,37.0487231 -0.934680558,31.4078404 2.1536308,27.4811024 C0.87007874,25.8584427 19.2608666,20.4832896 19.2608666,21.5586177 Z" id="Path" fill="#000000"></path>
                </g>
                <g id="Group" opacity="0.1" transform="translate(65.144357, 15.616798)" fill-rule="nonzero">
                    <ellipse id="Oval" fill="#3F3D56" cx="12.7626422" cy="75.8217848" rx="2.67567804" ry="3.50262467"></ellipse>
                    <path d="M14.8805774,60.835608 C15.2534724,60.1839293 15.4459904,59.44466 15.4383202,58.6938758 C15.4383202,56.7603675 14.2484689,55.1912511 12.7611549,55.1912511 C11.2738408,55.1912511 10.0839895,56.7603675 10.0839895,58.6938758 C10.076123,59.4448764 10.2692004,60.184322 10.6432196,60.835608 C9.89771528,62.165588 9.89771528,63.7876054 10.6432196,65.1175853 C9.89769037,66.4470291 9.89769037,68.0686314 10.6432196,69.3980752 C10.2692004,70.0493613 10.076123,70.7888069 10.0839895,71.5398075 C10.0839895,73.4733158 11.2827647,75.0424322 12.7611549,75.0424322 C14.2395451,75.0424322 15.4383202,73.4733158 15.4383202,71.5398075 C15.4459904,70.7890233 15.2534724,70.049754 14.8805774,69.3980752 C15.6243678,68.0681776 15.6243678,66.4474829 14.8805774,65.1175853 C15.6243443,63.7871521 15.6243443,62.1660412 14.8805774,60.835608 L14.8805774,60.835608 Z" id="Path" fill="#3F3D56"></path>
                    <ellipse id="Oval" fill="#3F3D56" cx="12.7626422" cy="54.4133858" rx="2.67567804" ry="3.50262467"></ellipse>
                    <ellipse id="Oval" fill="#3F3D56" cx="12.7626422" cy="50.1314086" rx="2.67567804" ry="3.50262467"></ellipse>
                    <path d="M2.75153106,20.8313211 C2.38580868,20.3661539 2.05284047,19.876144 1.75503062,19.3648294 L8.7855643,18.2106737 L1.1824147,18.2671916 C-0.291989071,15.0592206 -0.380746043,11.3857579 0.937007874,8.11032371 L11.1399825,13.4021872 L1.72974628,6.48617673 C4.12621842,2.32153327 8.65041721,-0.153260551 13.4499158,0.0750961085 C18.2494145,0.303452768 22.51821,3.19661087 24.5084502,7.56997091 C26.4986903,11.943331 25.8761444,17.0624535 22.895713,20.8313211 C23.465056,21.5560006 23.954725,22.3398699 24.3562555,23.1693788 L15.2300962,27.9109361 L24.9615923,24.6388451 C26.3504224,28.7424984 25.5733757,33.2699561 22.895713,36.675678 C27.0284356,41.930445 26.4285183,49.4790327 21.5176802,54.0150707 C16.606842,58.5511087 9.03445286,58.5511087 4.12361469,54.0150707 C-0.78722348,49.4790327 -1.38714081,41.930445 2.7455818,36.675678 C-0.911081491,32.0249364 -0.911081491,25.4761135 2.7455818,20.8253718 L2.75153106,20.8313211 Z" id="Path" fill="#660960"></path>
                    <path d="M25.6385199,28.7572178 C25.6427607,31.6321975 24.6763687,34.4244625 22.895713,36.6816273 C27.0284356,41.9363943 26.4285183,49.484982 21.5176802,54.02102 C16.606842,58.557058 9.03445286,58.557058 4.12361469,54.02102 C-0.78722348,49.484982 -1.38714081,41.9363943 2.7455818,36.6816273 C1.02773403,34.5012248 25.6385199,27.3174978 25.6385199,28.7572178 Z" id="Path" fill="#000000"></path>
                </g>
                <path d="M170,94.6258968 C170,95.6476815 162.530709,96.5817148 150.18154,97.3030621 C147.935696,97.4324584 145.529221,97.5559055 142.97699,97.671916 C140.771799,97.7710703 138.460513,97.8647711 136.043132,97.9530184 C133.701108,98.036308 131.26935,98.1136483 128.747857,98.1850394 C120.784777,98.4125984 111.981365,98.576203 102.629134,98.6580052 C100.359493,98.6788276 98.0596092,98.6946923 95.7294838,98.7055993 C93.3021872,98.7165063 90.8471274,98.721464 88.3643045,98.7204724 C43.2778653,98.7204724 6.73009624,96.8895888 6.73009624,94.6303587 C6.73009624,92.3711286 43.2778653,90.540245 88.3643045,90.540245 C107.775241,90.540245 125.6007,90.8808399 139.611199,91.4460192 L141.143132,91.5084864 L141.152056,91.5084864 C158.800525,92.2566054 170,93.3825022 170,94.6258968 Z" id="Path" fill="#3F3D56" fill-rule="nonzero"></path>
                <path d="M170,94.6258968 C170,95.6476815 162.530709,96.5817148 150.18154,97.3030621 C147.935696,97.4324584 145.529221,97.5559055 142.97699,97.671916 C140.771799,97.7710703 138.460513,97.8647711 136.043132,97.9530184 C133.701108,98.036308 131.26935,98.1136483 128.747857,98.1850394 C120.784777,98.4125984 111.981365,98.576203 102.629134,98.6580052 C100.359493,98.6788276 98.0596092,98.6946923 95.7294838,98.7055993 C93.3021872,98.7165063 90.8471274,98.721464 88.3643045,98.7204724 C43.2778653,98.7204724 6.73009624,96.8895888 6.73009624,94.6303587 C6.73009624,92.3711286 43.2778653,90.540245 88.3643045,90.540245 C107.775241,90.540245 125.6007,90.8808399 139.611199,91.4460192 L141.143132,91.5084864 L141.152056,91.5084864 C158.800525,92.2566054 170,93.3825022 170,94.6258968 Z" id="Path" fill="#5B6267" fill-rule="nonzero"></path>
                <path d="M163.269904,93.9060367 C163.269904,94.759755 155.800612,95.5420822 143.451444,96.1370079 C141.207087,96.2455818 138.799125,96.3482065 136.248381,96.4448819 C134.042199,96.5281715 131.730913,96.6065034 129.314523,96.6798775 C126.972499,96.7492855 124.540741,96.8142316 122.019248,96.8747157 C114.054681,97.0650919 105.251269,97.2019248 95.8990376,97.2703412 C93.6313794,97.2871974 91.3314961,97.3000875 88.9993876,97.3090114 C86.572091,97.3179353 84.117527,97.3223972 81.6356955,97.3223972 C36.5492563,97.3223972 1.69088035e-14,95.791951 1.69088035e-14,93.9015748 C1.69088035e-14,92.0111986 36.5492563,90.4807524 81.6356955,90.4807524 C101.045144,90.4807524 118.870604,90.7648294 132.881102,91.2377953 L134.413036,91.2898513 L134.423447,91.2898513 C152.077865,91.9249344 163.269904,92.8604549 163.269904,93.9060367 Z" id="Path" fill="#7B848A" fill-rule="nonzero"></path>
                <polygon id="Path" fill="#3F3D56" fill-rule="nonzero" points="21.0841645 62.8315836 19.0346457 56.5566054 68.1160105 56.019685 70.1268591 62.232196"></polygon>
                <polygon id="Path" fill="#5B6267" fill-rule="nonzero" points="21.0841645 62.8315836 19.0346457 56.5566054 68.1160105 56.019685 70.1268591 62.232196"></polygon>
                <polygon id="Path" fill="#7B848A" fill-rule="nonzero" points="17.8120735 62.8315836 15.7625547 56.5566054 64.8439195 56.019685 66.8547682 62.232196"></polygon>
                <path d="M101.599913,53.1893296 C96.5251969,53.1893296 92.5258093,51.1750073 89.6017498,47.1463692 C86.6776903,43.1177311 85.2156605,38.2373578 85.2156605,32.5052493 C85.2156605,26.7344707 86.6296005,21.8640128 89.4574803,17.8938758 C92.2853602,13.9237387 96.2743365,11.9406533 101.424409,11.9446135 C106.885827,11.9446135 111.000729,14.0362788 113.769116,18.2195976 C116.537504,22.4029163 117.922193,27.2446194 117.923185,32.7447069 C117.923185,38.2051327 116.490405,42.9784194 113.624847,47.0645669 C110.759288,51.1507145 106.750977,53.192301 101.599913,53.1893296 Z M101.748644,48.6574803 C105.087168,48.6574803 107.582386,47.2023914 109.234296,44.2922135 C110.886206,41.3820356 111.712161,37.7133275 111.712161,33.2860892 C111.712161,28.3581219 110.866871,24.3230388 109.17629,21.1808399 C107.48571,18.038641 104.892826,16.4670458 101.397638,16.4660542 C94.7543015,16.4660542 91.4326334,21.7430446 91.4326334,32.2970254 C91.4326334,43.2049869 94.870312,48.6584719 101.745669,48.6574803 L101.748644,48.6574803 Z M103.420385,92.055818 L96.0804899,92.055818 L144.132633,12.752231 L151.334208,12.752231 L103.420385,92.055818 Z M145.930796,92.8693821 C140.779732,92.8693821 136.763984,90.8367162 133.883552,86.7713911 C131.00312,82.7060659 129.556955,77.8251969 129.545057,72.1287839 C129.545057,66.3966754 130.949081,61.5455526 133.75713,57.5754156 C136.565179,53.6052785 140.564071,51.6221931 145.753806,51.6261533 C151.176553,51.6261533 155.2627,53.7178186 158.012248,57.9011374 C160.761796,62.0844561 162.137066,66.9256635 162.138058,72.4247594 C162.138058,77.8494896 160.714698,82.6138524 157.867979,86.7178478 C155.02126,90.8218431 151.041207,92.8723535 145.927822,92.8693821 L145.930796,92.8693821 Z M146.01706,88.2215223 C149.33972,88.2215223 151.821551,86.7912219 153.462555,83.9306212 C155.103558,81.0700204 155.924059,77.4161855 155.924059,72.9691164 C155.924059,68.2097113 155.093642,64.2182561 153.432808,60.9947507 C151.771974,57.7712453 149.184544,56.1570137 145.670516,56.152056 C138.98851,56.152056 135.647506,61.4290464 135.647506,71.9830271 C135.645523,82.8096821 139.10105,88.2225139 146.014086,88.2215223 L146.01706,88.2215223 Z" id="Shape" fill="#3F3D56" fill-rule="nonzero"></path>
                <path d="M101.599913,53.1893296 C96.5251969,53.1893296 92.5258093,51.1750073 89.6017498,47.1463692 C86.6776903,43.1177311 85.2156605,38.2373578 85.2156605,32.5052493 C85.2156605,26.7344707 86.6296005,21.8640128 89.4574803,17.8938758 C92.2853602,13.9237387 96.2743365,11.9406533 101.424409,11.9446135 C106.885827,11.9446135 111.000729,14.0362788 113.769116,18.2195976 C116.537504,22.4029163 117.922193,27.2446194 117.923185,32.7447069 C117.923185,38.2051327 116.490405,42.9784194 113.624847,47.0645669 C110.759288,51.1507145 106.750977,53.192301 101.599913,53.1893296 Z M101.748644,48.6574803 C105.087168,48.6574803 107.582386,47.2023914 109.234296,44.2922135 C110.886206,41.3820356 111.712161,37.7133275 111.712161,33.2860892 C111.712161,28.3581219 110.866871,24.3230388 109.17629,21.1808399 C107.48571,18.038641 104.892826,16.4670458 101.397638,16.4660542 C94.7543015,16.4660542 91.4326334,21.7430446 91.4326334,32.2970254 C91.4326334,43.2049869 94.870312,48.6584719 101.745669,48.6574803 L101.748644,48.6574803 Z M103.420385,92.055818 L96.0804899,92.055818 L144.132633,12.752231 L151.334208,12.752231 L103.420385,92.055818 Z M145.930796,92.8693821 C140.779732,92.8693821 136.763984,90.8367162 133.883552,86.7713911 C131.00312,82.7060659 129.556955,77.8251969 129.545057,72.1287839 C129.545057,66.3966754 130.949081,61.5455526 133.75713,57.5754156 C136.565179,53.6052785 140.564071,51.6221931 145.753806,51.6261533 C151.176553,51.6261533 155.2627,53.7178186 158.012248,57.9011374 C160.761796,62.0844561 162.137066,66.9256635 162.138058,72.4247594 C162.138058,77.8494896 160.714698,82.6138524 157.867979,86.7178478 C155.02126,90.8218431 151.041207,92.8723535 145.927822,92.8693821 L145.930796,92.8693821 Z M146.01706,88.2215223 C149.33972,88.2215223 151.821551,86.7912219 153.462555,83.9306212 C155.103558,81.0700204 155.924059,77.4161855 155.924059,72.9691164 C155.924059,68.2097113 155.093642,64.2182561 153.432808,60.9947507 C151.771974,57.7712453 149.184544,56.1570137 145.670516,56.152056 C138.98851,56.152056 135.647506,61.4290464 135.647506,71.9830271 C135.645523,82.8096821 139.10105,88.2225139 146.014086,88.2215223 L146.01706,88.2215223 Z" id="Shape" fill="#3F3D56" fill-rule="nonzero"></path>
                <path d="M101.599913,53.1893296 C96.5251969,53.1893296 92.5258093,51.1750073 89.6017498,47.1463692 C86.6776903,43.1177311 85.2156605,38.2373578 85.2156605,32.5052493 C85.2156605,26.7344707 86.6296005,21.8640128 89.4574803,17.8938758 C92.2853602,13.9237387 96.2743365,11.9406533 101.424409,11.9446135 C106.885827,11.9446135 111.000729,14.0362788 113.769116,18.2195976 C116.537504,22.4029163 117.922193,27.2446194 117.923185,32.7447069 C117.923185,38.2051327 116.490405,42.9784194 113.624847,47.0645669 C110.759288,51.1507145 106.750977,53.192301 101.599913,53.1893296 Z M101.748644,48.6574803 C105.087168,48.6574803 107.582386,47.2023914 109.234296,44.2922135 C110.886206,41.3820356 111.712161,37.7133275 111.712161,33.2860892 C111.712161,28.3581219 110.866871,24.3230388 109.17629,21.1808399 C107.48571,18.038641 104.892826,16.4670458 101.397638,16.4660542 C94.7543015,16.4660542 91.4326334,21.7430446 91.4326334,32.2970254 C91.4326334,43.2049869 94.870312,48.6584719 101.745669,48.6574803 L101.748644,48.6574803 Z M103.420385,92.055818 L96.0804899,92.055818 L144.132633,12.752231 L151.334208,12.752231 L103.420385,92.055818 Z M145.930796,92.8693821 C140.779732,92.8693821 136.763984,90.8367162 133.883552,86.7713911 C131.00312,82.7060659 129.556955,77.8251969 129.545057,72.1287839 C129.545057,66.3966754 130.949081,61.5455526 133.75713,57.5754156 C136.565179,53.6052785 140.564071,51.6221931 145.753806,51.6261533 C151.176553,51.6261533 155.2627,53.7178186 158.012248,57.9011374 C160.761796,62.0844561 162.137066,66.9256635 162.138058,72.4247594 C162.138058,77.8494896 160.714698,82.6138524 157.867979,86.7178478 C155.02126,90.8218431 151.041207,92.8723535 145.927822,92.8693821 L145.930796,92.8693821 Z M146.01706,88.2215223 C149.33972,88.2215223 151.821551,86.7912219 153.462555,83.9306212 C155.103558,81.0700204 155.924059,77.4161855 155.924059,72.9691164 C155.924059,68.2097113 155.093642,64.2182561 153.432808,60.9947507 C151.771974,57.7712453 149.184544,56.1570137 145.670516,56.152056 C138.98851,56.152056 135.647506,61.4290464 135.647506,71.9830271 C135.645523,82.8096821 139.10105,88.2225139 146.014086,88.2215223 L146.01706,88.2215223 Z" id="Shape" fill="#5B6267" fill-rule="nonzero"></path>
                <path d="M96.9892388,53.1893296 C91.9145232,53.1893296 87.9151356,51.1750073 84.9910761,47.1463692 C82.0670166,43.1177311 80.6049869,38.2373578 80.6049869,32.5052493 C80.6049869,26.7344707 82.0189268,21.8640128 84.8468066,17.8938758 C87.6746865,13.9237387 91.6636629,11.9406533 96.8137358,11.9446135 C102.275153,11.9446135 106.390055,14.0362788 109.158443,18.2195976 C111.92683,22.4029163 113.311519,27.2446194 113.312511,32.7447069 C113.312511,38.2051327 111.879732,42.9784194 109.014173,47.0645669 C106.148615,51.1507145 102.140303,53.192301 96.9892388,53.1893296 Z M97.1379703,48.6574803 C100.476495,48.6574803 102.971712,47.2023914 104.623622,44.2922135 C106.275532,41.3820356 107.101487,37.7133275 107.101487,33.2860892 C107.101487,28.3581219 106.256197,24.3230388 104.565617,21.1808399 C102.875036,18.038641 100.282152,16.4670458 96.7869641,16.4660542 C90.1436279,16.4660542 86.8219598,21.7430446 86.8219598,32.2970254 C86.8219598,43.2049869 90.2596384,48.6584719 97.1349956,48.6574803 L97.1379703,48.6574803 Z M98.8097113,92.055818 L91.4698163,92.055818 L139.52196,12.752231 L146.723535,12.752231 L98.8097113,92.055818 Z M141.320122,92.8693821 C136.169058,92.8693821 132.15331,90.8367162 129.272878,86.7713911 C126.392447,82.7060659 124.946282,77.8251969 124.934383,72.1287839 C124.934383,66.3966754 126.338408,61.5455526 129.146457,57.5754156 C131.954506,53.6052785 135.953397,51.6221931 141.143132,51.6261533 C146.565879,51.6261533 150.652027,53.7178186 153.401575,57.9011374 C156.151123,62.0844561 157.526393,66.9256635 157.527384,72.4247594 C157.527384,77.8494896 156.104024,82.6138524 153.257305,86.7178478 C150.410586,90.8218431 146.430534,92.8723535 141.317148,92.8693821 L141.320122,92.8693821 Z M141.406387,88.2215223 C144.729046,88.2215223 147.210878,86.7912219 148.851881,83.9306212 C150.492884,81.0700204 151.313386,77.4161855 151.313386,72.9691164 C151.313386,68.2097113 150.482969,64.2182561 148.822135,60.9947507 C147.161301,57.7712453 144.572878,56.1570137 141.056868,56.152056 C134.374861,56.152056 131.033858,61.4290464 131.033858,71.9830271 C131.033858,82.8096821 134.490376,88.2225139 141.403412,88.2215223 L141.406387,88.2215223 Z" id="Shape" fill="#7B848A" fill-rule="nonzero"></path>
                <path d="M113.046282,94.0458443 C113.659055,92.9095363 112.962992,91.5174103 112.162817,90.5030621 C111.362642,89.4887139 110.386964,88.4356955 110.407787,87.1432196 C110.437533,85.2885389 112.406737,84.1923885 113.97734,83.2077865 C115.145441,82.4780744 116.222846,81.6123567 117.186964,80.6287839 C117.590707,80.2498959 117.924509,79.8028119 118.173053,79.308049 C118.498775,78.5822397 118.488364,77.7567804 118.470516,76.9625547 C118.4021,74.3131525 118.271216,71.6677165 118.077865,69.0262467" id="Path" stroke="#3F3D56" stroke-width="4"></path>
                <path d="M121.070341,68.8804899 C121.024881,67.8956168 120.480451,67.0018773 119.626159,66.5097113 L118.97769,67.791776 L118.997025,66.2390201 C118.687702,66.1486515 118.365583,66.109957 118.043657,66.1244969 C116.446975,66.1993446 115.213263,67.5543506 115.288041,69.1510357 C115.362818,70.7477208 116.717769,71.9814925 118.314458,71.9067856 C119.911146,71.8320788 121.144978,70.4771817 121.070341,68.8804899 L121.070341,68.8804899 Z" id="Path" fill="#660960" fill-rule="nonzero"></path>
                <path d="M115.909361,88.4743657 C115.283453,89.6905115 113.891329,90.302098 112.572253,89.9404203 C111.253177,89.5787426 110.367668,88.3426512 110.449569,86.9773439 C110.53147,85.6120367 111.558397,84.490667 112.91125,84.2892709 C114.264103,84.0878749 115.573132,84.8614961 116.049169,86.1437445 L114.240595,87.6146982 L116.233596,87.1506562 C116.232767,87.6114528 116.121587,88.0653494 115.909361,88.4743657 Z" id="Path" fill="#660960" fill-rule="nonzero"></path>
                <path d="M114.480052,82.8508311 C113.713209,82.8867785 112.963497,82.6165995 112.395872,82.0997401 C111.828247,81.5828807 111.489214,80.8616867 111.453368,80.0948381 C111.430851,79.6414956 111.516498,79.1892993 111.703237,78.7755906 C112.053244,77.9929169 112.731769,77.4053339 113.55643,77.1707787 L113.54007,78.3606299 L114.195976,77.063692 L114.195976,77.063692 C115.792818,76.9889427 117.14791,78.2228428 117.22266,79.819685 C117.297409,81.4165272 116.063509,82.7716199 114.466667,82.8463692 L114.480052,82.8508311 Z" id="Path" fill="#660960" fill-rule="nonzero"></path>
                <path d="M121.506124,78.176203 C120.460366,78.2456472 119.4587,77.7446172 118.887077,76.8661641 C118.315455,75.987711 118.263098,74.8689508 118.750181,73.9409517 C119.237265,73.0129526 120.18776,72.420564 121.235433,72.3920385 C121.776353,72.3656922 122.313675,72.4930614 122.785214,72.7594051 L122.273578,74.1604549 L123.326597,73.1505687 C123.891763,73.6657177 124.229315,74.3841527 124.265092,75.1480315 C124.278265,75.4159476 124.253225,75.6843747 124.190726,75.9452318 C123.894979,77.2052676 122.799004,78.1160503 121.506124,78.176203 L121.506124,78.176203 Z" id="Path" fill="#660960" fill-rule="nonzero"></path>
                <path d="M120.680665,69.6524059 C120.012861,69.7252843 119.364392,69.9335083 118.693613,69.9751531 C118.022835,70.0167979 117.286614,69.856168 116.86273,69.3341207 C116.633683,69.0545057 116.520647,68.6990376 116.327297,68.3926509 C116.1447,68.1074381 115.894322,67.8718775 115.598513,67.7069991 C115.091317,68.7085296 115.209028,69.9130199 115.900528,70.7974058 C116.592028,71.6817918 117.732571,72.086531 118.826863,71.8358607 C119.921155,71.5851904 120.771787,70.7243314 121.009361,69.6271216 C120.8993,69.6330709 120.790726,69.6405074 120.680665,69.6524059 Z" id="Path" fill="#000000" fill-rule="nonzero" opacity="0.1"></path>
                <path d="M121.506124,78.176203 C120.491664,78.2224329 119.527049,77.7341567 118.963674,76.8892454 C118.400298,76.0443341 118.320408,74.9661354 118.753106,74.0474191 C118.982412,74.2028338 119.179817,74.4007439 119.334646,74.6304462 C119.541382,74.9412948 119.666317,75.3012248 119.908749,75.5867892 C120.354943,76.1177603 121.129834,76.2902887 121.827384,76.2590551 C122.524934,76.2278215 123.200175,76.0285214 123.896238,75.9615923 C123.992913,75.9526684 124.091076,75.9467192 124.193701,75.9437445 C123.898221,77.205389 122.800562,78.1171682 121.506124,78.176203 L121.506124,78.176203 Z" id="Path" fill="#000000" fill-rule="nonzero" opacity="0.1"></path>
                <path d="M114.480052,82.8508311 C113.713209,82.8867785 112.963497,82.6165995 112.395872,82.0997401 C111.828247,81.5828807 111.489214,80.8616867 111.453368,80.0948381 C111.430851,79.6414956 111.516498,79.1892993 111.703237,78.7755906 C111.941885,78.9345782 112.149121,79.1362685 112.314523,79.3705162 C112.539108,79.6873141 112.680402,80.0531934 112.943657,80.3461942 C113.431496,80.8890639 114.252493,81.0809274 114.991689,81.0630796 C115.730884,81.0452318 116.398688,80.8727034 117.111111,80.8176728 C116.749347,81.9815503 115.697547,82.7943317 114.480052,82.8508311 L114.480052,82.8508311 Z" id="Path" fill="#000000" fill-rule="nonzero" opacity="0.1"></path>
                <path d="M115.909361,88.4743657 C115.209871,89.8490586 113.555234,90.4336857 112.147392,89.8035691 C110.739549,89.1734525 110.073194,87.5500045 110.632371,86.1125109 C110.870649,86.2693116 111.084624,86.460235 111.267454,86.6791776 C111.542607,87.0153106 111.724059,87.396063 112.042345,87.708399 C112.63727,88.2884514 113.589151,88.527909 114.439895,88.5502187 C114.930791,88.554228 115.421487,88.5288985 115.909361,88.4743657 L115.909361,88.4743657 Z" id="Path" fill="#000000" fill-rule="nonzero" opacity="0.1"></path>
                <path d="M157.814436,93.8971129 C158.427209,92.7608049 157.731146,91.3686789 156.930971,90.3543307 C156.130796,89.3399825 155.155118,88.2869641 155.175941,86.9944882 C155.205687,85.1398075 157.174891,84.043657 158.745494,83.0590551 C159.913595,82.329343 160.991,81.4636253 161.955118,80.4800525 C162.358861,80.1011645 162.692663,79.6540805 162.941207,79.1593176 C163.266929,78.4335083 163.256518,77.608049 163.23867,76.8138233 C163.170254,74.1644211 163.03937,71.5189851 162.846019,68.8775153" id="Path" stroke="#3F3D56" stroke-width="4"></path>
                <path d="M165.838495,68.7317585 C165.793035,67.7468854 165.248605,66.8531459 164.394313,66.3609799 L163.745844,67.6430446 L163.765179,66.0902887 C163.455855,65.9999201 163.133737,65.9612256 162.811811,65.9757655 C161.215129,66.0506132 159.981417,67.4056191 160.056195,69.0023043 C160.130972,70.5989894 161.485923,71.8327611 163.082612,71.7580542 C164.6793,71.6833474 165.913132,70.3284503 165.838495,68.7317585 L165.838495,68.7317585 Z" id="Path" fill="#660960" fill-rule="nonzero"></path>
                <path d="M160.677515,88.3256343 C160.051607,89.5417801 158.659483,90.1533666 157.340407,89.7916889 C156.021331,89.4300112 155.135822,88.1939198 155.217723,86.8286125 C155.299624,85.4633052 156.326551,84.3419356 157.679404,84.1405395 C159.032257,83.9391434 160.341286,84.7127647 160.817323,85.9950131 L159.008749,87.4659668 L161.00175,87.0019248 C161.00092,87.4627214 160.889741,87.916618 160.677515,88.3256343 Z" id="Path" fill="#660960" fill-rule="nonzero"></path>
                <path d="M159.248206,82.7020997 C158.481363,82.7380471 157.731651,82.4678681 157.164026,81.9510087 C156.596401,81.4341493 156.257368,80.7129553 156.221522,79.9461067 C156.199005,79.4927641 156.284652,79.0405679 156.471391,78.6268591 C156.821398,77.8441855 157.499923,77.2566025 158.324584,77.0220472 L158.308224,78.2118985 L158.964129,76.9149606 L158.971566,76.9149606 C160.004542,76.8666062 160.984848,77.373011 161.543212,78.2434171 C162.101576,79.1138233 162.153169,80.2159954 161.678557,81.1347558 C161.203945,82.0535163 160.275233,82.6492835 159.242257,82.6976378 L159.248206,82.7020997 Z" id="Path" fill="#660960" fill-rule="nonzero"></path>
                <path d="M166.274278,78.0274716 C165.22852,78.0969158 164.226854,77.5958858 163.655231,76.7174327 C163.083609,75.8389796 163.031252,74.7202194 163.518335,73.7922203 C164.005419,72.8642212 164.955914,72.2718326 166.003587,72.2433071 C166.544507,72.2169608 167.081829,72.34433 167.553368,72.6106737 L167.041732,74.0117235 L168.094751,73.0018373 C168.659916,73.5169863 168.997469,74.2354212 169.033246,74.9993001 C169.046419,75.2672162 169.021379,75.5356433 168.95888,75.7965004 C168.663133,77.0565362 167.567158,77.9673189 166.274278,78.0274716 Z" id="Path" fill="#660960" fill-rule="nonzero"></path>
                <path d="M165.448819,69.5036745 C164.781015,69.5765529 164.132546,69.7847769 163.461767,69.8264217 C162.790989,69.8680665 162.054768,69.7074366 161.630884,69.1853893 C161.401837,68.9057743 161.288801,68.5503062 161.095451,68.2439195 C160.912854,67.9587066 160.662475,67.723146 160.366667,67.5582677 C159.859471,68.5597982 159.977182,69.7642885 160.668682,70.6486744 C161.360182,71.5330604 162.500725,71.9377996 163.595017,71.6871293 C164.689309,71.436459 165.539941,70.5756 165.777515,69.4783902 C165.667454,69.4843395 165.55888,69.491776 165.448819,69.5036745 Z" id="Path" fill="#000000" fill-rule="nonzero" opacity="0.1"></path>
                <path d="M166.274278,78.0274716 C165.259818,78.0737014 164.295203,77.5854253 163.731827,76.740514 C163.168452,75.8956026 163.088562,74.817404 163.52126,73.8986877 C163.750566,74.0541024 163.947971,74.2520125 164.1028,74.4817148 C164.309536,74.7925634 164.434471,75.1524934 164.676903,75.4380577 C165.123097,75.9690289 165.897988,76.1415573 166.595538,76.1103237 C167.293088,76.0790901 167.968329,75.87979 168.664392,75.8128609 C168.761067,75.803937 168.85923,75.7979878 168.961855,75.7950131 C168.666375,77.0566576 167.568716,77.9684368 166.274278,78.0274716 Z" id="Path" fill="#000000" fill-rule="nonzero" opacity="0.1"></path>
                <path d="M159.248206,82.7020997 C158.481363,82.7380471 157.731651,82.4678681 157.164026,81.9510087 C156.596401,81.4341493 156.257368,80.7129553 156.221522,79.9461067 C156.199005,79.4927641 156.284652,79.0405679 156.471391,78.6268591 C156.710039,78.7858468 156.917275,78.987537 157.082677,79.2217848 C157.307262,79.5385827 157.448556,79.9044619 157.711811,80.1974628 C158.19965,80.7403325 159.020647,80.932196 159.759843,80.9143482 C160.476728,80.8994751 161.166842,80.723972 161.879265,80.6689414 C161.517501,81.8328189 160.465701,82.6456003 159.248206,82.7020997 L159.248206,82.7020997 Z" id="Path" fill="#000000" fill-rule="nonzero" opacity="0.1"></path>
                <path d="M160.677515,88.3256343 C159.978025,89.7003272 158.323388,90.2849543 156.915546,89.6548377 C155.507703,89.0247211 154.841348,87.4012731 155.400525,85.9637795 C155.638803,86.1205802 155.852778,86.3115036 156.035608,86.5304462 C156.310761,86.8665792 156.492213,87.2473316 156.810499,87.5596675 C157.405424,88.13972 158.357305,88.3791776 159.208049,88.4014873 C159.698945,88.4054966 160.189641,88.3801671 160.677515,88.3256343 L160.677515,88.3256343 Z" id="Path" fill="#000000" fill-rule="nonzero" opacity="0.1"></path>
                <path d="M16.3500437,91.9636045 C15.7372703,90.8272966 16.4333333,89.4351706 17.2335083,88.4208224 C18.0336833,87.4064742 19.0093613,86.3534558 18.9885389,85.0609799 C18.9587927,83.2062992 16.9895888,82.1101487 15.4189851,81.1255468 C14.250884,80.3958347 13.1734798,79.530117 12.2093613,78.5465442 C11.8056185,78.1676561 11.471816,77.7205722 11.2232721,77.2258093 C10.8975503,76.5 10.9079615,75.6745407 10.9258093,74.880315 C10.9942257,72.2309128 11.1251094,69.5854768 11.3184602,66.944007" id="Path" stroke="#3F3D56" stroke-width="4"></path>
                <path d="M8.32598425,66.7982502 C8.37144467,65.8133771 8.91587444,64.9196375 9.77016623,64.4274716 L10.4186352,65.7095363 L10.3993001,64.1567804 C10.7086239,64.0664118 11.0307424,64.0277173 11.3526684,64.0422572 C12.9493503,64.1171049 14.1830621,65.4721108 14.1082849,67.068796 C14.0335077,68.6654811 12.6785561,69.8992527 11.0818677,69.8245459 C9.48517922,69.7498391 8.25134785,68.394942 8.32598425,66.7982502 L8.32598425,66.7982502 Z" id="Path" fill="#660960" fill-rule="nonzero"></path>
                <path d="M13.4869641,86.392126 C14.1128723,87.6082718 15.5049968,88.2198583 16.8240726,87.8581806 C18.1431484,87.4965029 19.0286576,86.2604115 18.9467566,84.8951042 C18.8648556,83.5297969 17.8379288,82.4084273 16.4850758,82.2070312 C15.1322227,82.0056351 13.8231931,82.7792564 13.3471566,84.0615048 L15.1557305,85.5324584 L13.1627297,85.0684164 C13.1635589,85.5292131 13.2747381,85.9831097 13.4869641,86.392126 L13.4869641,86.392126 Z" id="Path" fill="#660960" fill-rule="nonzero"></path>
                <path d="M14.916273,80.7685914 C15.6831168,80.8045388 16.4328284,80.5343598 17.0004533,80.0175004 C17.5680782,79.500641 17.9071112,78.779447 17.9429571,78.0125984 C17.9654748,77.5592558 17.8798277,77.1070596 17.6930884,76.6933508 C17.3430815,75.9106772 16.6645566,75.3230942 15.839895,75.0885389 L15.8562555,76.2783902 L15.20035,74.9814523 L15.20035,74.9814523 C13.6035078,74.906703 12.2484151,76.1406031 12.1736658,77.7374453 C12.0989165,79.3342875 13.3328166,80.6893802 14.9296588,80.7641295 L14.916273,80.7685914 Z" id="Path" fill="#660960" fill-rule="nonzero"></path>
                <path d="M7.89020122,76.0939633 C8.93595932,76.1634075 9.93762517,75.6623775 10.509248,74.7839244 C11.0808709,73.9054713 11.1332274,72.7867111 10.6461441,71.858712 C10.1590607,70.9307129 9.20856543,70.3383243 8.16089239,70.3097988 C7.62246869,70.2848664 7.08791891,70.4121892 6.61854768,70.6771654 L7.13018373,72.0782152 L6.06972878,71.0727909 C5.50562813,71.5868613 5.1681738,72.3034838 5.1312336,73.0657918 C5.1180606,73.3337079 5.14310044,73.6021349 5.2055993,73.8629921 C5.50134628,75.1230278 6.59732152,76.0338106 7.89020122,76.0939633 L7.89020122,76.0939633 Z" id="Path" fill="#660960" fill-rule="nonzero"></path>
                <path d="M8.71566054,67.5701662 C9.38346457,67.6430446 10.0319335,67.8512686 10.7027122,67.8929134 C11.3734908,67.9345582 12.1097113,67.7739283 12.5335958,67.251881 C12.7626422,66.972266 12.875678,66.6167979 13.0690289,66.3104112 C13.251625,66.0251983 13.5020039,65.7896377 13.7978128,65.6247594 C14.3050085,66.6262899 14.1872976,67.8307801 13.4957976,68.7151661 C12.8042976,69.5995521 11.6637544,70.0042913 10.5694623,69.753621 C9.4751702,69.5029507 8.62453856,68.6420916 8.38696413,67.5448819 C8.49702537,67.5508311 8.6055993,67.5582677 8.71566054,67.5701662 Z" id="Path" fill="#000000" fill-rule="nonzero" opacity="0.1"></path>
                <path d="M7.89020122,76.0939633 C8.90466172,76.1401931 9.86927627,75.651917 10.4326519,74.8070057 C10.9960276,73.9620943 11.0759177,72.8838957 10.6432196,71.9651794 C10.4139135,72.1205941 10.2165083,72.3185042 10.0616798,72.5482065 C9.85494313,72.8590551 9.73000875,73.2189851 9.48757655,73.5045494 C9.04138233,74.0355206 8.26649169,74.208049 7.56894138,74.1768154 C6.87139108,74.1455818 6.19615048,73.9462817 5.50008749,73.8793526 C5.40341207,73.8704287 5.30524934,73.8644794 5.20262467,73.8615048 C5.49810482,75.1231493 6.59576305,76.0349285 7.89020122,76.0939633 L7.89020122,76.0939633 Z" id="Path" fill="#000000" fill-rule="nonzero" opacity="0.1"></path>
                <path d="M14.916273,80.7685914 C15.6831168,80.8045388 16.4328284,80.5343598 17.0004533,80.0175004 C17.5680782,79.500641 17.9071112,78.779447 17.9429571,78.0125984 C17.9654748,77.5592558 17.8798277,77.1070596 17.6930884,76.6933508 C17.4544408,76.8523385 17.2472041,77.0540287 17.0818023,77.2882765 C16.8572178,77.6050744 16.715923,77.9709536 16.4526684,78.2639545 C15.9648294,78.8068241 15.143832,78.9986877 14.4046369,78.9808399 C13.6877515,78.9659668 12.9976378,78.7904637 12.2852143,78.7354331 C12.6469789,79.8993105 13.6987788,80.712092 14.916273,80.7685914 L14.916273,80.7685914 Z" id="Path" fill="#000000" fill-rule="nonzero" opacity="0.1"></path>
                <path d="M13.4869641,86.392126 C14.1864543,87.7668189 15.8410915,88.351446 17.2489339,87.7213294 C18.6567762,87.0912128 19.3231318,85.4677648 18.7639545,84.0302712 C18.5256765,84.1870719 18.3117019,84.3779953 18.1288714,84.5969379 C17.8537183,84.9330709 17.672266,85.3138233 17.3539808,85.6261592 C16.7590551,86.2062117 15.8071741,86.4456693 14.9564304,86.467979 C14.4655347,86.4719883 13.974838,86.4466588 13.4869641,86.392126 L13.4869641,86.392126 Z" id="Path" fill="#000000" fill-rule="nonzero" opacity="0.1"></path>
                <path d="M100.170672,78.0259843 C100.176241,77.294778 99.8353092,76.6040888 99.2514436,76.163867 C99.215748,74.8 98.2430446,73.6860017 96.9922135,73.5134733 C96.7955392,72.5703616 96.1106444,71.8038237 95.1955381,71.5026247 L95.1955381,71.5026247 C95.0861308,71.4679696 94.9742648,71.4416189 94.8608924,71.423797 L94.8281715,71.423797 L94.7701662,71.4163605 L94.7210849,71.4163605 L94.6720035,71.4163605 L94.608049,71.4163605 L94.5693788,71.4163605 L94.4637795,71.4163605 C93.187664,71.4163605 92.1257218,72.3920385 91.9070866,73.6785652 C91.0816273,73.488189 90.3245844,73.7350831 90.1892388,74.2571304 C90.1542919,74.3954977 90.1620699,74.5412049 90.2115486,74.6750656 C90.3513561,75.079615 90.8064742,75.4663167 91.4237095,75.6581802 L91.5040245,75.6819773 C91.544182,75.6938758 91.5843395,75.7027997 91.6244969,75.7117235 L91.6512686,75.7117235 L91.6512686,75.7117235 C91.1799715,76.7165996 91.5797129,77.9145154 92.5600175,78.4349956 C92.5414208,78.4451814 92.5235324,78.4566101 92.5064742,78.4692038 C92.4302466,78.5391701 92.3694584,78.6242737 92.3279965,78.7190726 C92.1788632,78.9807873 92.0629499,79.2600786 91.9829396,79.5504812 C91.9234471,79.7988626 91.9130359,80.0591426 91.8342082,80.3045494 C91.6988626,80.7507437 91.3508311,81.1419073 91.3106737,81.6163605 C91.2928259,81.8275591 91.3270341,82.0759405 91.1768154,82.22021 C91.1394159,82.2524099 91.0996414,82.2817436 91.0578303,82.3079615 C90.9525246,82.3800246 90.863377,82.4732244 90.796063,82.5816273 C90.7522301,82.6712827 90.6933751,82.7527743 90.6220472,82.8225722 C90.4867017,82.9251969 90.2636045,82.9147857 90.1966754,83.0724409 C90.1297463,83.2300962 90.3022747,83.4160105 90.2621172,83.5885389 C90.2293963,83.7283465 90.076203,83.792301 89.9646544,83.8860017 C89.8398913,84.0213251 89.7527215,84.1869479 89.711811,84.3664042 C89.261955,84.4531668 88.7968394,84.3348431 88.4431321,84.043657 C88.5030413,84.1968593 88.5469037,84.3558605 88.5740157,84.5181102 C88.3970254,84.3292213 88.1055118,84.2741907 87.8898513,84.176028 C87.6116964,84.0485859 87.3634091,83.8641439 87.1610674,83.6346457 L87.5507437,83.5811024 L85.8254593,80.9634296 L85.3167979,80.8593176 L85.7734033,81.7353456 C85.6977001,81.7716854 85.6428715,81.8407695 85.6246719,81.9227472 C85.6000786,82.0198982 85.5940236,82.1208153 85.6068241,82.22021 C85.63099,82.455006 85.670237,82.688004 85.724322,82.9177603 L85.8566929,83.5335083 C85.8679089,83.5912729 85.8823083,83.6483737 85.899825,83.7045494 C85.7273434,83.6983169 85.5548977,83.7178675 85.388189,83.7625547 C85.046208,83.6360655 84.6901059,83.5516598 84.327734,83.5111986 C84.2480287,83.4972187 84.1662033,83.5012846 84.0882765,83.5230971 C83.9998589,83.5638961 83.9231355,83.6262979 83.8651794,83.7045494 C83.5676848,84.0484467 83.3037267,84.4199801 83.0769029,84.8140857 C82.1503062,86.4263342 80.9128609,87.8333333 79.7542432,89.2909011 C78.9540682,89.6166229 78.147944,89.9259843 77.3403325,90.232371 L75.6046369,90.8942257 C75.2580927,91.0265967 74.8981627,91.1619423 74.5293088,91.1381452 C74.3627297,91.127734 74.1604549,91.1024497 74.0667542,91.2437445 C74.0211409,91.3137846 73.9855937,91.3898855 73.9611549,91.4698163 C73.900175,91.4698163 73.8391951,91.4846894 73.7826772,91.487664 L73.772266,91.487664 C73.6622047,91.2139983 73.5670166,90.9209974 73.355818,90.7216973 C73.2694667,90.7349584 73.1956349,90.7908917 73.1594926,90.8704287 C73.1178478,90.947769 73.0925634,91.0325459 73.0449694,91.103937 C72.9512686,91.2407699 72.7891514,91.307699 72.6731409,91.4237095 C72.5571304,91.53972 72.484252,91.7211724 72.3593176,91.8342082 C72.1843699,91.9613691 71.9793435,92.0408168 71.764392,92.0647419 C71.4424027,92.1405555 71.1318414,92.2585788 70.8407699,92.415748 C70.7334323,92.4817436 70.6185901,92.5346709 70.4986877,92.5734033 C70.3668378,92.598689 70.2318453,92.6032055 70.0986002,92.5867892 L69.1794401,92.51986 C69.0976493,92.5091563 69.0146235,92.5126786 68.9340332,92.5302712 C68.7393135,92.6016412 68.6171477,92.7952741 68.6365704,93.0017498 C68.6592059,93.2031499 68.7641901,93.3861993 68.9265967,93.5074366 C69.0861552,93.6244135 69.2627223,93.7162084 69.4501312,93.779615 C70.2488481,94.0889738 71.0722795,94.3302815 71.911636,94.5009624 L71.911636,94.6868766 C72.493432,94.9798905 73.1357226,95.1326956 73.7871391,95.1330709 C73.8351413,95.1368204 73.8832983,95.1281112 73.9269466,95.1077865 C73.987157,95.0625708 74.0289083,94.9970371 74.0444444,94.9233596 C74.239464,94.3400933 74.3628252,93.7352741 74.411811,93.1222222 L74.411811,93.1222222 C74.5266739,93.1148086 74.6391502,93.0860591 74.7434821,93.0374453 C75.06028,92.9511811 75.3741032,93.168329 75.699825,93.2040245 C76.1013998,93.2471566 76.4747157,93.0136483 76.8539808,92.8693788 C76.9090114,92.8485564 76.964042,92.8307087 77.0190726,92.8128609 C76.9108794,92.9528323 76.7831553,93.0765493 76.6398075,93.1802275 C76.4821522,93.2932633 76.3051619,93.3765529 76.1504812,93.4940507 C76.0219327,93.6114967 75.8841613,93.7184311 75.7384952,93.8138233 C75.6358007,93.8616535 75.5299543,93.9024019 75.4216973,93.935783 C75.2647366,93.9930341 75.1149925,94.0684053 74.9755031,94.1603675 C74.8505582,94.2339895 74.7446051,94.3358675 74.6661417,94.4578303 C74.5857774,94.5735824 74.5711743,94.7227251 74.6275602,94.851867 C74.6839461,94.9810088 74.8032574,95.0716818 74.9427822,95.0914261 C75.067008,95.1134791 75.1938175,95.1169877 75.3190726,95.1018373 C75.8158355,95.0646544 76.3111111,95.0185477 76.8063867,94.9739283 C77.0160689,94.9599481 77.2243922,94.9301166 77.4295713,94.8846894 C77.5381452,94.8579178 77.6452318,94.8222222 77.7538058,94.7939633 C77.9390332,94.7451014 78.129055,94.716673 78.3204724,94.7091864 C78.3760378,94.7048073 78.4319392,94.7103471 78.4855643,94.7255468 C78.6015748,94.7627297 78.6833771,94.8742782 78.8008749,94.9040245 C78.8771516,94.9114533 78.9541043,94.9007513 79.0254593,94.8727909 C79.3880271,94.7940596 79.7580294,94.7546658 80.1290464,94.7552931 C80.2911636,94.7463692 80.4815398,94.7151356 80.5573928,94.5649169 C80.6496063,94.3790026 80.4949256,94.1707787 80.4339458,93.9699913 C80.4028698,93.842343 80.3859119,93.711667 80.3833771,93.580315 C80.3550887,93.2562466 80.262028,92.9411555 80.1097113,92.6537183 C80.0287523,92.5195894 79.9605337,92.3781728 79.9059493,92.2313211 C80.6166834,91.9609722 81.2967229,91.6159668 81.9346457,91.2020997 C82.3005249,90.9745407 82.6783027,90.7291339 83.091776,90.6458443 C83.5736658,90.5491689 84.0704287,90.6770779 84.5448819,90.8139108 C85.6750148,91.14088 86.7866655,91.528642 87.8749781,91.9755031 C88.3955381,92.188189 88.916098,92.4142607 89.4485564,92.5704287 C89.6042292,92.7804828 89.7925261,92.9642605 90.0062992,93.1147857 C90.3632546,93.3453193 90.7990376,93.4122485 91.2184602,93.4449694 C91.7850624,93.496741 92.3540334,93.5180898 92.9229221,93.5089239 C93.3572178,93.5014873 93.8048994,93.471741 94.1930884,93.2739283 C94.2879289,93.2252473 94.3771963,93.1664006 94.4593176,93.0984252 C94.7567804,93.1519685 95.0616798,92.9928259 95.2951881,92.7890639 C95.6042388,92.5261389 95.8270712,92.1763439 95.9347332,91.7851269 C96.0715661,91.2482065 95.9659668,90.6220472 96.2961505,90.1832896 C96.383902,90.0657918 96.4984252,89.9706037 96.5846894,89.8516185 C96.6909124,89.6922741 96.7430581,89.5029854 96.7334208,89.3117235 L96.748294,89.2894138 C96.8230184,89.1168223 96.8730863,88.934575 96.8970254,88.7480315 C96.9361423,88.6023133 96.9858517,88.4596473 97.0457568,88.3211724 C97.2134389,87.9061571 97.3593934,87.4826906 97.4830271,87.0524934 C97.5690038,86.7670951 97.6365677,86.4764711 97.6853018,86.1824147 C97.7209974,85.9474191 97.7418198,85.7109361 97.7611549,85.4744532 C97.7850192,85.1042801 97.8570164,84.7387945 97.9753281,84.3872266 C98.2688972,83.5481637 98.4348466,82.6697849 98.467629,81.7814523 C98.467629,81.7636045 98.467629,81.7472441 98.467629,81.7293963 C99.3624313,81.6312743 100.035678,80.8684767 100.021872,79.9684164 C100.022265,79.7066113 99.9675345,79.4476563 99.8612423,79.208399 C100.066453,78.8482846 100.173155,78.4404566 100.170672,78.0259843 Z M91.7598425,88.2453193 C91.7851269,88.3360455 91.8148731,88.4267717 91.8446194,88.5174978 C91.7077865,88.3821522 91.5724409,88.2423447 91.4341207,88.1084864 C91.4891514,88.1248469 91.544182,88.1426947 91.5977253,88.1620297 C91.6547423,88.1846212 91.7095166,88.2125063 91.7613298,88.2453193 L91.7598425,88.2453193 Z M91.0935258,87.7991251 C90.2814523,87.0941382 89.3414698,86.5468066 88.5100612,85.8656168 C88.9562555,86.0902012 89.4024497,86.3504812 89.8486439,86.60035 C90.3682123,86.8978128 90.89373,87.1823855 91.4251969,87.4540682 C91.338016,87.5863501 91.2270726,87.7013277 91.0979878,87.7931759 L91.0935258,87.7991251 Z M91.44007,86.0232721 L91.4787402,85.9831146 C91.4787402,86.0827647 91.4787402,86.1764654 91.4787402,86.2612423 C91.4058618,86.2374453 91.3300087,86.2136483 91.260105,86.1868766 C91.3243299,86.1344998 91.3849515,86.0778535 91.4415573,86.0173228 L91.44007,86.0232721 Z M84.2905512,87.9329834 C84.6249593,87.5547696 84.9158181,87.1401836 85.1576553,86.6970254 C85.4789151,87.2607174 86.0024497,87.6667542 86.4486439,88.1382327 C85.7317585,88.0370954 85.0133858,87.9582677 84.2920385,87.9270341 L84.2905512,87.9329834 Z" id="Shape" fill="url(#linearGradient-1)" fill-rule="nonzero"></path>
                <polygon id="Path" fill="#2F2E41" fill-rule="nonzero" points="85.4506562 81.0764654 85.9637795 81.1805774 87.7113736 83.7625547 86.9394576 83.8666667"></polygon>
                <path d="M73.024147,91.5560805 C73.1625084,92.0137157 73.3329811,92.4610201 73.5342957,92.8946632 C74.1133498,92.7735171 74.682966,92.6109827 75.2387577,92.4083115 C75.1311863,92.2407533 75.0129487,92.0802879 74.8847769,91.927909 C74.7481471,91.7760305 74.5848138,91.6505058 74.4028871,91.5575678 C74.2258968,91.4802275 74.0072616,91.5382327 73.8183727,91.5486439 C73.5536308,91.5585593 73.2888889,91.5610382 73.024147,91.5560805 Z" id="Path" fill="#FBBEBE" fill-rule="nonzero"></path>
                <path d="M74.4058618,92.2461942 C74.1173228,92.1554681 73.9403325,91.8639545 73.8228346,91.5828521 C73.7053368,91.3017498 73.6101487,90.9953631 73.3870516,90.7886264 C73.300809,90.8021437 73.2270856,90.8579947 73.1907262,90.9373578 C73.1475941,91.0117235 73.1223097,91.0965004 73.0732283,91.1678915 C72.9810149,91.3017498 72.8174103,91.3671916 72.6999125,91.4817148 C72.5824147,91.596238 72.5095363,91.7702537 72.3831146,91.8847769 C72.2077234,92.0108695 72.0028552,92.0897437 71.788189,92.1138233 C71.4639815,92.1872939 71.1509144,92.3033188 70.8571304,92.4588801 C70.7483882,92.5219093 70.6325622,92.5718344 70.5120735,92.6076115 C70.3792205,92.6328938 70.2432491,92.6374094 70.1090114,92.6209974 L69.1824147,92.5540682 C69.1000439,92.5438293 69.016525,92.5478543 68.9355206,92.5659668 C68.7412573,92.6335906 68.6183963,92.8252537 68.6380577,93.0300087 C68.6629142,93.2304711 68.7708518,93.4112666 68.9355206,93.528259 C69.0966128,93.6433836 69.2741,93.7336313 69.4620297,93.7959755 C70.2693201,94.0995416 71.1000078,94.3368099 71.9458443,94.5054243 L71.9458443,94.688364 C72.5336895,94.9793319 73.1803107,95.1319569 73.8362205,95.1345582 C73.8871466,95.1390511 73.9383712,95.1303429 73.9849519,95.1092738 C74.0452201,95.0651389 74.0874834,95.0006874 74.103937,94.9278215 C74.326253,94.277962 74.4559314,93.6000291 74.4891514,92.9139983 C74.5062091,92.7405308 74.4931261,92.5654199 74.4504812,92.3964129 C74.3999125,92.2298338 74.5724409,92.2997375 74.411811,92.2342957" id="Path" fill="#2F2E41" fill-rule="nonzero"></path>
                <path d="M92.1703412,88.7539808 C89.4232721,88.9205599 86.7104112,88.1144357 83.9588801,88.0281715 C83.6173828,88.0073975 83.2746278,88.0293818 82.9385827,88.0936133 C82.588248,88.1875292 82.2491386,88.3191834 81.9272091,88.4862642 C80.4532808,89.171916 78.9272966,89.74007 77.4027997,90.308224 L75.6537183,90.9596675 C75.3027122,91.0890639 74.9412948,91.2214348 74.567979,91.1991251 C74.4013998,91.1887139 74.1976378,91.1634296 74.1024497,91.3032371 C73.8183727,91.724147 73.9537183,92.344357 74.1411199,92.8173228 C74.2020997,92.9660542 74.3047244,93.1370954 74.468329,93.1549431 C74.5840655,93.1470229 74.6974267,93.1183047 74.8029746,93.0701662 C75.1212598,92.9853893 75.4395451,93.1995626 75.7667542,93.2337708 C76.1727909,93.2769029 76.5490814,93.0463692 76.9313211,92.9050744 C77.5649169,92.6715661 78.2580052,92.6790026 78.924322,92.5674541 C80.0427822,92.3815398 81.0779528,91.8624672 82.0476815,91.2705162 C82.4165354,91.0459318 82.7913386,90.8049869 83.2137358,90.7231846 C83.7000875,90.6279965 84.2013123,90.7529309 84.6787402,90.8882765 C85.8169474,91.210495 86.9374465,91.592269 88.035608,92.032021 C88.6072004,92.2803633 89.193279,92.4939343 89.7906387,92.6715661 C91.0925614,93.0143569 92.4697748,92.934141 93.7230971,92.4425197 C94.1692913,92.2685039 94.6392826,91.9621172 94.6645669,91.487664 C94.6794401,91.2169729 94.4697288,90.9790026 94.3299213,90.744007 C94.2391951,90.5952756 94.1499563,90.4465442 94.0517935,90.3052493 C93.5788276,89.6151356 93.0047244,88.7034121 92.1703412,88.7539808 Z" id="Path" fill="#2F2E41" fill-rule="nonzero"></path>
                <path d="M92.1703412,88.7539808 C89.4232721,88.9205599 86.7104112,88.1144357 83.9588801,88.0281715 C83.6173828,88.0073975 83.2746278,88.0293818 82.9385827,88.0936133 C82.588248,88.1875292 82.2491386,88.3191834 81.9272091,88.4862642 C80.4532808,89.171916 78.9272966,89.74007 77.4027997,90.308224 L75.6537183,90.9596675 C75.3027122,91.0890639 74.9412948,91.2214348 74.567979,91.1991251 C74.4013998,91.1887139 74.1976378,91.1634296 74.1024497,91.3032371 C73.8183727,91.724147 73.9537183,92.344357 74.1411199,92.8173228 C74.2020997,92.9660542 74.3047244,93.1370954 74.468329,93.1549431 C74.5840655,93.1470229 74.6974267,93.1183047 74.8029746,93.0701662 C75.1212598,92.9853893 75.4395451,93.1995626 75.7667542,93.2337708 C76.1727909,93.2769029 76.5490814,93.0463692 76.9313211,92.9050744 C77.5649169,92.6715661 78.2580052,92.6790026 78.924322,92.5674541 C80.0427822,92.3815398 81.0779528,91.8624672 82.0476815,91.2705162 C82.4165354,91.0459318 82.7913386,90.8049869 83.2137358,90.7231846 C83.7000875,90.6279965 84.2013123,90.7529309 84.6787402,90.8882765 C85.8169474,91.210495 86.9374465,91.592269 88.035608,92.032021 C88.6072004,92.2803633 89.193279,92.4939343 89.7906387,92.6715661 C91.0925614,93.0143569 92.4697748,92.934141 93.7230971,92.4425197 C94.1692913,92.2685039 94.6392826,91.9621172 94.6645669,91.487664 C94.6794401,91.2169729 94.4697288,90.9790026 94.3299213,90.744007 C94.2391951,90.5952756 94.1499563,90.4465442 94.0517935,90.3052493 C93.5788276,89.6151356 93.0047244,88.7034121 92.1703412,88.7539808 Z" id="Path" fill="#000000" fill-rule="nonzero" opacity="0.1"></path>
                <path d="M78.2966754,91.6899388 C78.727005,91.8356955 79.1603091,91.9705453 79.5965879,92.0944882 C79.8419948,91.6914261 80.3000875,91.411811 80.4041995,90.952231 C80.4101092,90.9323339 80.4101092,90.9111482 80.4041995,90.8912511 C80.3928168,90.8716845 80.3756778,90.8561036 80.3551181,90.8466317 C80.0415592,90.6736725 79.6936709,90.5720993 79.336308,90.5491689 C79.0537183,90.5313211 78.9258093,90.8258093 78.7979003,91.0325459 C78.7532808,91.1158355 78.4111986,91.7286089 78.2966754,91.6899388 Z" id="Path" fill="#FBBEBE" fill-rule="nonzero"></path>
                <path d="M78.9020122,91.3954506 C78.6423064,91.3522372 78.4128303,91.2015928 78.2699038,90.9804899 C78.2089239,90.8748906 78.1449694,90.7321085 78.0230096,90.7395451 C77.9010499,90.7469816 77.8594051,90.8808399 77.8341207,90.9923885 C77.7517604,91.4090756 77.6328102,91.8176869 77.4786527,92.2134733 C77.3231899,92.6104189 77.059965,92.9560626 76.7186352,93.2114611 C76.5594926,93.3215223 76.3825022,93.4048119 76.2263342,93.5208224 C76.0961792,93.6369002 75.9569159,93.7423424 75.8098863,93.836133 C75.7063193,93.8834905 75.5994468,93.923257 75.4901137,93.9551181 C75.3298558,94.0110861 75.1766302,94.0854529 75.0335083,94.1767279 C74.9080557,94.2502089 74.801588,94.3520919 74.7226597,94.4741907 C74.6453715,94.6000235 74.6353479,94.7559455 74.695888,94.8906387 C74.7607302,94.9996427 74.8688976,95.0759007 74.9933508,95.10035 C75.118721,95.1211749 75.246405,95.1241792 75.3726159,95.1092738 C75.8738408,95.072091 76.3735783,95.0274716 76.8733158,94.9828521 C77.0848792,94.9697688 77.295173,94.9409342 77.5024497,94.8965879 C77.6125109,94.8698163 77.7195976,94.8341207 77.8281715,94.8058618 C78.0155942,94.7580933 78.2075226,94.7301764 78.4007874,94.7225722 C78.4568424,94.7183278 78.5132085,94.7238637 78.5673666,94.7389326 C78.6833771,94.7761155 78.7651794,94.887664 78.8841645,94.9144357 C78.960812,94.9224051 79.0382591,94.9122147 79.1102362,94.8846894 C79.4760059,94.8072843 79.848877,94.7684021 80.2227472,94.7686789 C80.3863517,94.759755 80.5797025,94.7285214 80.6540682,94.5812773 C80.747769,94.3983377 80.5930884,94.1930884 80.5306212,93.9967629 C80.4997752,93.8710495 80.4823259,93.7424236 80.4785652,93.6130359 C80.4504101,93.2934613 80.3567473,92.9831082 80.2034121,92.7013123 C80.0755031,92.4663167 79.9059493,92.2075241 79.9907262,91.9576553 C80.0363123,91.8796728 80.0651825,91.7930622 80.0755031,91.7033246 C80.0546807,91.3002625 79.128084,91.4489939 78.9020122,91.3954506 Z" id="Path" fill="#2F2E41" fill-rule="nonzero"></path>
                <path d="M88.0519685,84.3485564 C87.5653345,84.1337694 87.1754045,83.7464885 86.9573053,83.2613298 C86.9126859,83.1572178 86.8740157,83.0486439 86.8308836,82.9430446 C86.6861171,82.593931 86.4620644,82.2833126 86.1764654,82.035783 C86.1146026,81.9676948 86.0259796,81.9301796 85.9340332,81.9331584 C85.8445589,81.9597823 85.7763576,82.0325303 85.7555556,82.1235346 C85.7300683,82.2205272 85.7235037,82.3215215 85.7362205,82.4209974 C85.7616249,82.6517943 85.8013634,82.8807872 85.8552056,83.1066492 L85.9890639,83.7134733 C86.0059512,83.8066979 86.0339124,83.8975718 86.0723535,83.9841645 C86.1295919,84.0859568 86.2052407,84.1762311 86.2954506,84.2503937 C86.4174103,84.3634296 86.5408574,84.4720035 86.6657918,84.5776028 C86.7346503,84.6399345 86.809934,84.6947769 86.8903762,84.7412073 C87.0223407,84.8037618 87.1634147,84.8449293 87.3083115,84.8631671 C87.8541557,84.9643045 88.4089239,85.1100612 88.8685039,85.4580927 C88.8685039,85.4580927 88.8685039,85.052056 88.8580927,85.0118985 C88.8525222,84.8942338 88.8121464,84.7808711 88.7420822,84.6861767 C88.5695538,84.5002625 88.272091,84.4452318 88.0519685,84.3485564 Z" id="Path" fill="#FBBEBE" fill-rule="nonzero"></path>
                <path d="M88.0519685,84.3485564 C87.5653345,84.1337694 87.1754045,83.7464885 86.9573053,83.2613298 C86.9126859,83.1572178 86.8740157,83.0486439 86.8308836,82.9430446 C86.6861171,82.593931 86.4620644,82.2833126 86.1764654,82.035783 C86.1146026,81.9676948 86.0259796,81.9301796 85.9340332,81.9331584 C85.8445589,81.9597823 85.7763576,82.0325303 85.7555556,82.1235346 C85.7300683,82.2205272 85.7235037,82.3215215 85.7362205,82.4209974 C85.7616249,82.6517943 85.8013634,82.8807872 85.8552056,83.1066492 L85.9890639,83.7134733 C86.0059512,83.8066979 86.0339124,83.8975718 86.0723535,83.9841645 C86.1295919,84.0859568 86.2052407,84.1762311 86.2954506,84.2503937 C86.4174103,84.3634296 86.5408574,84.4720035 86.6657918,84.5776028 C86.7346503,84.6399345 86.809934,84.6947769 86.8903762,84.7412073 C87.0223407,84.8037618 87.1634147,84.8449293 87.3083115,84.8631671 C87.8541557,84.9643045 88.4089239,85.1100612 88.8685039,85.4580927 C88.8685039,85.4580927 88.8685039,85.052056 88.8580927,85.0118985 C88.8525222,84.8942338 88.8121464,84.7808711 88.7420822,84.6861767 C88.5695538,84.5002625 88.272091,84.4452318 88.0519685,84.3485564 Z" id="Path" fill="#000000" fill-rule="nonzero" opacity="0.1"></path>
                <ellipse id="Oval" fill="#2F2E41" fill-rule="nonzero" cx="93.6442695" cy="79.0358705" rx="1" ry="1"></ellipse>
                <path d="M93.2307962,78.6298338 C93.0514729,78.5889553 92.8633627,78.6159795 92.7027997,78.7056868 C92.6256276,78.7739701 92.5642215,78.8582132 92.5228346,78.9525809 C92.3726094,79.2093958 92.2556604,79.4842759 92.1748031,79.7706037 C92.1153106,80.0160105 92.1048994,80.2718285 92.0260717,80.5142607 C91.8892388,80.9604549 91.5382327,81.33972 91.4980752,81.8052493 C91.4802275,82.0134733 91.5144357,82.2588801 91.3627297,82.400175 C91.3250279,82.4317718 91.2847275,82.4601314 91.2422572,82.4849519 C91.1366061,82.5558572 91.046938,82.6480582 90.9790026,82.755643 C90.9335714,82.8522266 90.8705216,82.9394877 90.7930884,83.0129484 C90.6562555,83.1140857 90.431671,83.1036745 90.3647419,83.2598425 C90.2978128,83.4160105 90.4703412,83.5974628 90.4301837,83.7670166 C90.3974628,83.9053368 90.2427822,83.9692913 90.1327209,84.0644794 C90.0073534,84.1972664 89.9195739,84.3610189 89.8783902,84.5389326 C89.4262589,84.6240501 88.9595138,84.5072279 88.6007874,84.2191601 C88.7867017,84.6787402 88.7911636,85.1859143 88.7986002,85.6811899 C88.820042,85.8396109 88.7777878,86.0000699 88.6811024,86.1273841 C89.2135608,86.1392826 89.7311461,86.2761155 90.2502187,86.3995626 C90.4722097,86.4739373 90.7123923,86.4739373 90.9343832,86.3995626 C91.0530516,86.3356494 91.1593327,86.2510276 91.2482065,86.1496938 C91.5307962,85.8626422 91.8267717,85.5547682 91.8951881,85.1546807 C91.9132882,84.9295748 91.9172622,84.7035558 91.9070866,84.4779528 C91.9343916,84.1994157 91.9917387,83.9246482 92.0781277,83.6584427 C92.2274947,83.1057544 92.3270469,82.5407957 92.3755906,81.9703412 C92.4068241,81.6178478 92.7102362,81.3352581 92.8708661,81.0199475 C93.168329,80.4250219 93.4806649,79.8077865 93.5044619,79.1414698 C93.5252843,78.924322 93.4509186,78.6580927 93.2307962,78.6298338 Z" id="Path" fill="#2F2E41" fill-rule="nonzero"></path>
                <path d="M93.2307962,78.6298338 C93.0514729,78.5889553 92.8633627,78.6159795 92.7027997,78.7056868 C92.6256276,78.7739701 92.5642215,78.8582132 92.5228346,78.9525809 C92.3726094,79.2093958 92.2556604,79.4842759 92.1748031,79.7706037 C92.1153106,80.0160105 92.1048994,80.2718285 92.0260717,80.5142607 C91.8892388,80.9604549 91.5382327,81.33972 91.4980752,81.8052493 C91.4802275,82.0134733 91.5144357,82.2588801 91.3627297,82.400175 C91.3250279,82.4317718 91.2847275,82.4601314 91.2422572,82.4849519 C91.1366061,82.5558572 91.046938,82.6480582 90.9790026,82.755643 C90.9335714,82.8522266 90.8705216,82.9394877 90.7930884,83.0129484 C90.6562555,83.1140857 90.431671,83.1036745 90.3647419,83.2598425 C90.2978128,83.4160105 90.4703412,83.5974628 90.4301837,83.7670166 C90.3974628,83.9053368 90.2427822,83.9692913 90.1327209,84.0644794 C90.0073534,84.1972664 89.9195739,84.3610189 89.8783902,84.5389326 C89.4262589,84.6240501 88.9595138,84.5072279 88.6007874,84.2191601 C88.7867017,84.6787402 88.7911636,85.1859143 88.7986002,85.6811899 C88.820042,85.8396109 88.7777878,86.0000699 88.6811024,86.1273841 C89.2135608,86.1392826 89.7311461,86.2761155 90.2502187,86.3995626 C90.4722097,86.4739373 90.7123923,86.4739373 90.9343832,86.3995626 C91.0530516,86.3356494 91.1593327,86.2510276 91.2482065,86.1496938 C91.5307962,85.8626422 91.8267717,85.5547682 91.8951881,85.1546807 C91.9132882,84.9295748 91.9172622,84.7035558 91.9070866,84.4779528 C91.9343916,84.1994157 91.9917387,83.9246482 92.0781277,83.6584427 C92.2274947,83.1057544 92.3270469,82.5407957 92.3755906,81.9703412 C92.4068241,81.6178478 92.7102362,81.3352581 92.8708661,81.0199475 C93.168329,80.4250219 93.4806649,79.8077865 93.5044619,79.1414698 C93.5252843,78.924322 93.4509186,78.6580927 93.2307962,78.6298338 Z" id="Path" fill="#000000" fill-rule="nonzero" opacity="0.1"></path>
                <path d="M92.6061242,89.3325459 C92.0335083,89.0603675 91.6155731,88.5531934 91.1530184,88.1188976 C90.2695538,87.2889764 89.1897638,86.7029746 88.2616798,85.9251094 C87.6474191,85.4104987 87.0971129,84.8111111 86.420385,84.37979 C85.8252061,84.0000813 85.150179,83.7633636 84.4482065,83.688189 C84.3680062,83.6741859 84.2856921,83.6782508 84.2072616,83.7000875 C84.1186043,83.7397834 84.0413688,83.8011626 83.9826772,83.8785652 C83.6828259,84.2164593 83.4163484,84.5825546 83.1869641,84.971741 C82.0104987,86.9677165 80.340245,88.6468941 78.9555556,90.5045494 C78.8634641,90.5952655 78.8563489,90.7414517 78.9391951,90.8406824 L79.2202975,91.3924759 C79.3779528,91.70035 79.6307962,92.06028 79.9639545,91.9993001 C80.1168092,91.955243 80.2536778,91.867957 80.3580927,91.747944 L81.6223097,90.5387577 L82.9475066,89.2715661 C83.7238845,88.527909 84.5136483,87.7693788 85.0208224,86.8204724 C85.4164479,87.5061242 86.1184602,87.9552931 86.60035,88.5844269 C86.7832896,88.8223972 86.932021,89.0856518 87.0956255,89.3384952 C87.3588801,89.7445319 87.656343,90.1252843 87.9538058,90.5045494 L89.4753281,92.4454943 C89.6672885,92.7219342 89.9052374,92.9634046 90.1788276,93.1594051 C90.5387577,93.3869641 90.9775153,93.447944 91.4013998,93.4851269 C91.9724516,93.5372068 92.5459215,93.5580603 93.1192476,93.5475941 C93.5565179,93.5401575 94.011636,93.5118985 94.3983377,93.3170604 C94.7850394,93.1222222 95.1137358,92.7221347 95.0929134,92.2863517 C95.069259,92.0580017 94.9945358,91.8378987 94.8742782,91.6423447 C94.3373578,90.6458443 93.6264217,89.8129484 92.6061242,89.3325459 Z" id="Path" fill="#2F2E41" fill-rule="nonzero"></path>
                <ellipse id="Oval" fill="#E8E8F0" fill-rule="nonzero" cx="94.0547682" cy="79.5013998" rx="1" ry="1"></ellipse>
                <path d="M93.9417323,79.1132108 C94.0576719,79.344008 94.0779784,79.6111999 93.9982502,79.8568679 C93.9189363,80.0985238 93.807906,80.3285866 93.6680665,80.5410324 C93.5477153,80.7604484 93.4035687,80.9659446 93.2382327,81.1538058 C94.0309711,81.1924759 94.7999125,80.8816273 95.4989501,80.5038495 C96.0626422,80.2063867 96.6248469,79.8271216 96.9252843,79.2604549 C96.7444706,79.3035576 96.553864,79.26846 96.4002625,79.1637795 C96.2490003,79.0583606 96.1133173,78.9321904 95.9972003,78.7889764 L95.6000875,78.3427822 C95.5062913,78.2448708 95.4239579,78.1365899 95.3546807,78.020035 C95.2677566,77.8616864 95.2309343,77.6806865 95.2490814,77.5009624 C95.0909867,77.666491 94.9143146,77.8132188 94.7225722,77.9382327 C94.4384952,78.124147 94.1276465,78.2580052 93.8405949,78.4409449 C93.7394576,78.5063867 93.5148731,78.611986 93.5728784,78.7384077 C93.6308836,78.8648294 93.8614173,78.9704287 93.9417323,79.1132108 Z" id="Path" fill="#FBBEBE" fill-rule="nonzero"></path>
                <path d="M93.9417323,79.1132108 C94.0576719,79.344008 94.0779784,79.6111999 93.9982502,79.8568679 C93.9189363,80.0985238 93.807906,80.3285866 93.6680665,80.5410324 C93.5477153,80.7604484 93.4035687,80.9659446 93.2382327,81.1538058 C94.0309711,81.1924759 94.7999125,80.8816273 95.4989501,80.5038495 C96.0626422,80.2063867 96.6248469,79.8271216 96.9252843,79.2604549 C96.7444706,79.3035576 96.553864,79.26846 96.4002625,79.1637795 C96.2490003,79.0583606 96.1133173,78.9321904 95.9972003,78.7889764 L95.6000875,78.3427822 C95.5062913,78.2448708 95.4239579,78.1365899 95.3546807,78.020035 C95.2677566,77.8616864 95.2309343,77.6806865 95.2490814,77.5009624 C95.0909867,77.666491 94.9143146,77.8132188 94.7225722,77.9382327 C94.4384952,78.124147 94.1276465,78.2580052 93.8405949,78.4409449 C93.7394576,78.5063867 93.5148731,78.611986 93.5728784,78.7384077 C93.6308836,78.8648294 93.8614173,78.9704287 93.9417323,79.1132108 Z" id="Path" fill="#000000" fill-rule="nonzero" opacity="0.1"></path>
                <path d="M93.9521435,79.1905512 C93.7878619,79.4227265 93.7878619,79.7332665 93.9521435,79.9654418 C93.9744532,79.9937008 94.0592301,80.1706912 94.1008749,80.1721785 C94.1359635,80.1691976 94.1685088,80.1526582 94.191601,80.1260717 C94.3712728,79.9383134 94.5391638,79.7396258 94.6943132,79.5311461 C94.8510499,79.3199613 95.0777059,79.1713171 95.3338583,79.1117235 C95.6447069,79.0626422 95.943657,79.227734 96.2158355,79.3853893 C96.3327994,79.4434983 96.4346386,79.5280249 96.5132983,79.6322835 C96.570638,79.7357168 96.6046501,79.8504443 96.6129484,79.9684164 C96.6910679,80.6774986 96.720883,81.3910721 96.7021872,82.1041995 C96.7166434,82.6183681 96.6827823,83.1327582 96.6010499,83.6405949 C96.5504812,83.9023622 96.4746282,84.1581802 96.4389326,84.4229221 C96.4128822,84.6559682 96.4024477,84.8904957 96.407699,85.1249344 L96.407699,86.1065617 C96.4011581,86.2864065 96.4141239,86.4664307 96.4463692,86.6434821 C96.5077639,86.8546941 96.5797416,87.062685 96.6620297,87.2666667 C96.7344395,87.5094339 96.7842289,87.7583809 96.8107612,88.0103237 L96.9446194,89.0261592 C96.9877515,89.3474191 97.0189851,89.6969379 96.824147,89.9542432 C96.7378828,90.071741 96.6218723,90.1639545 96.5266842,90.279965 C96.1920385,90.7053368 96.3035871,91.3225722 96.1548556,91.8505687 C96.0448222,92.23802 95.8197268,92.5829242 95.5093613,92.8396325 C95.2728784,93.0404199 94.9664917,93.1995626 94.660105,93.1370954 C94.248119,93.059755 93.9997375,92.6299213 93.8867017,92.2238845 C93.7736658,91.8178478 93.7379703,91.3746282 93.4895888,91.0340332 C93.2902887,90.7529309 92.9824147,90.5774278 92.704287,90.3766404 C92.4261592,90.175853 92.1524934,89.9185477 92.0915136,89.5794401 C92.0647419,89.4307087 92.0811024,89.2819773 92.0662292,89.1332458 C92.0212186,88.7471651 91.7691526,88.4163998 91.4088364,88.2706037 C91.1976378,88.1888014 90.9358705,88.1590551 90.8139108,87.9731409 C91.1167011,87.7829517 91.3374025,87.4863843 91.4326334,87.1417323 C91.5249361,86.8021498 91.5748923,86.4524564 91.5813648,86.1006124 L91.6527559,84.919685 C91.6839895,84.3916885 91.6988626,83.868154 91.9308836,83.3937008 C92.0349956,83.1825022 92.164392,82.9832021 92.2714786,82.7734908 C92.4149367,82.479169 92.537207,82.1749842 92.6373578,81.8632546 C92.8054243,81.3798775 92.9749781,80.8950131 93.1251969,80.4056868 C93.1853088,80.1687018 93.275267,79.940308 93.3929134,79.7259843 C93.5312336,79.5028871 93.7141732,79.2351706 93.9521435,79.1905512 Z" id="Path" fill="#E8E8F0" fill-rule="nonzero"></path>
                <path d="M91.3300087,86.8636045 L91.6423447,86.8740157 L91.7092738,86.4025372 C91.7181699,86.3082198 91.7401966,86.2156073 91.7747157,86.1273841 C91.8265769,86.0343444 91.8868147,85.946228 91.9546807,85.8641295 C92.2625547,85.4298338 92.240245,84.8527559 92.316098,84.3247594 C92.4172353,83.6212598 92.7117235,82.9608924 93.0032371,82.3124234 L93.6100612,80.9604549 C93.6641028,80.8493125 93.7074307,80.7332733 93.7394576,80.6139108 C93.7659636,80.4822382 93.7784276,80.3481254 93.7766404,80.2138233 C93.7766404,80.0055993 93.8450569,79.2455818 93.8495188,79.0358705 C93.8495188,78.9585302 93.679965,79.0016623 93.6442695,78.9332458 C93.5684164,78.7845144 93.4643045,79.1890639 93.3215223,79.2783027 C93.1869352,79.381191 93.0889235,79.5245591 93.0419073,79.6873141 C92.9110236,80.027909 92.8307087,80.3863517 92.7087489,80.7284339 C92.6017543,81.0787513 92.4066411,81.3957462 92.1420822,81.6490814 C92.0186352,81.7591426 91.8743657,81.8454068 91.7568679,81.9614173 C91.3790901,82.3347332 91.3433946,82.9237095 91.3300087,83.4487314 C91.3210849,83.7744532 91.260105,86.8636045 91.3300087,86.8636045 Z" id="Path" fill="#2F2E41" fill-rule="nonzero"></path>
                <path d="M95.8291339,78.6268591 C95.531671,78.7458443 95.3591426,79.0730534 95.2743657,79.3913386 C95.1895888,79.7096238 95.1538933,80.0457568 94.9902887,80.3283465 C94.6095363,80.9916885 93.6383202,81.1850394 93.3691164,81.9019248 C93.3005754,82.1439991 93.2640729,82.394016 93.2605424,82.6455818 C93.2129484,83.1587052 93.0433946,83.6554681 92.9928259,84.1685914 C92.9665675,84.5677325 92.9760248,84.9684215 93.0210849,85.3658793 L93.3616798,89.4158355 C93.4277331,90.0123084 93.3930415,90.6156418 93.2590551,91.2006124 C93.6083457,91.2509049 93.9646473,91.1922139 94.2793526,91.0325459 C94.5991251,90.8838145 94.8906387,90.6874891 95.1970254,90.5179353 C95.7250219,90.2204724 96.308049,90.019685 96.7691164,89.6255468 C96.8527733,89.5603703 96.9247,89.4814017 96.9818023,89.3920385 C97.055807,89.2217818 97.1058602,89.0420907 97.1305337,88.8580927 C97.1696689,88.714799 97.2193825,88.5746067 97.2792651,88.4386702 C97.4500832,88.0304437 97.5990258,87.6134044 97.7254593,87.1893263 C97.8120766,86.9080307 97.8801435,86.6213549 97.9292213,86.3311461 C97.9664042,86.1006124 97.9857393,85.8671041 98.0065617,85.6350831 C98.0303682,85.2701071 98.1028984,84.9099568 98.2222222,84.564217 C98.517238,83.7392872 98.6842635,82.8740651 98.7174978,81.9986002 C98.7277691,81.8721166 98.7192485,81.7448091 98.6922135,81.6208224 C98.6408439,81.4704803 98.5719533,81.3267086 98.4869641,81.1924759 C98.3456693,80.9262467 98.2608924,80.6332458 98.1270341,80.364042 C97.8295713,79.7542432 97.2956255,79.2916885 96.7378828,78.9034996 C96.4523185,78.7146107 96.1384952,78.5093613 95.8291339,78.6268591 Z" id="Path" fill="#2F2E41" fill-rule="nonzero"></path>
                <path d="M88.7286964,85.2349956 C88.4871251,85.1086928 88.2684343,84.9427895 88.0817148,84.744182 C87.9969379,84.6445319 87.9329834,84.5329834 87.8407699,84.4348206 C87.6223274,84.2019617 87.3388375,84.0402636 87.0272091,83.9707787 C86.7177057,83.9025776 86.4010811,83.8721138 86.084252,83.8800525 C85.8726118,83.8654495 85.6601242,83.8911903 85.4580927,83.9559055 C85.2519109,84.0233264 85.094703,84.1917635 85.0416448,84.4020997 C84.9955381,84.6549431 85.1606299,84.90035 85.3584427,85.0609799 C85.5423976,85.211269 85.7588108,85.316675 85.9905512,85.3688539 C86.1795605,85.4015891 86.3702231,85.4239324 86.5616798,85.435783 C87.6860892,85.5532808 88.6900262,86.1645669 89.6746282,86.7223097 C90.540245,87.2111403 91.422718,87.6687372 92.3220472,88.0951006 C92.357701,87.8259521 92.372618,87.5544616 92.3666667,87.2830271 C92.3666667,87.0807524 92.3517935,86.7713911 92.15993,86.6524059 C91.9368329,86.5125984 91.5650044,86.4813648 91.3181102,86.3980752 C90.7384708,86.2089592 90.1724631,85.9803695 89.6240595,85.7139108 C89.3132108,85.563692 89.015748,85.4045494 88.7286964,85.2349956 Z" id="Path" fill="#FBBEBE" fill-rule="nonzero"></path>
                <ellipse id="Oval" fill="#FBBEBE" fill-rule="nonzero" cx="93.6442695" cy="76.8673666" rx="2.00341207" ry="2.01531059"></ellipse>
                <path d="M96.4017498,80.9113736 C96.2422929,81.1354574 96.1118587,81.3788345 96.0135608,81.6356955 C95.7651794,82.1458443 95.3769904,82.5831146 95.1836395,83.1230096 C94.9783902,83.683727 94.9858268,84.3515311 94.5887139,84.7932633 C94.5088919,84.8602398 94.4487481,84.9476283 94.4146982,85.0461067 C94.4122556,85.1075149 94.405296,85.16866 94.3938758,85.2290464 C94.3373578,85.3896763 94.0741032,85.3971129 94.0250219,85.5607174 C94.011636,85.6083115 94.0250219,85.6603675 94.0012248,85.7094488 C93.9610674,85.8150481 93.8227472,85.8299213 93.7290464,85.8938758 C93.5342082,86.0262467 93.580315,86.3326334 93.4315836,86.5230096 C93.3085161,86.6668742 93.1178428,86.7338369 92.931846,86.6985127 C92.7495178,86.6601058 92.5740243,86.5944211 92.4112861,86.5036745 C92.3540796,86.4714892 92.2907309,86.4517244 92.2253718,86.4456693 C92.1477184,86.4473062 92.0724398,86.4727451 92.0097113,86.5185477 C91.6393701,86.7535433 91.4653543,87.2205599 91.4682915,87.6608049 C91.4944591,88.1010694 91.5987081,88.5331739 91.776203,88.9369204 C91.797144,89.0066832 91.8320604,89.0714557 91.8788276,89.1272966 C92.0007874,89.2566929 92.2149606,89.2358705 92.3785652,89.1629921 C92.5318396,89.0722385 92.6950249,88.999379 92.8649169,88.9458443 C93.1742782,88.8893263 93.4776903,89.1034996 93.7915136,89.0856518 C94.0211196,89.0507589 94.2372662,88.9552642 94.4176728,88.8090114 C94.7362281,88.6155541 95.0214905,88.3719763 95.2624672,88.087664 C95.3993001,87.907699 95.5004374,87.7024497 95.6209099,87.5105862 C95.7747742,87.2748643 95.9436873,87.0493156 96.1265967,86.8353456 L97.2822397,85.4209099 C97.398194,85.2869723 97.5022068,85.1431459 97.5930884,84.9910761 C97.6972858,84.7854352 97.7785839,84.5689728 97.8355206,84.3455818 C97.9593179,83.9728427 98.0396691,83.5870574 98.0749781,83.195888 C98.0808794,82.8720416 98.0524619,82.5484811 97.9902012,82.2306212 C97.9514012,81.9144881 97.8677674,81.6054937 97.7418198,81.3129484 C97.4845144,80.7923885 96.8732283,80.3610674 96.4017498,80.9113736 Z" id="Path" fill="#2F2E41" fill-rule="nonzero"></path>
                <path d="M100.426444,78.2862642 C100.429613,77.5613832 100.084327,76.8791128 99.4983377,76.4524059 C99.4802776,75.1423556 98.5167404,74.0378436 97.2212598,73.8421697 C96.9709185,72.6017337 95.8646875,71.7210958 94.5997023,71.7552251 C93.3347172,71.7893544 92.2775801,72.7283599 92.0944882,73.9804899 C91.2615923,73.7930884 90.5000875,74.0370079 90.3617673,74.5501312 C90.2130359,75.0870516 90.8079615,75.7146982 91.6884514,75.9526684 C91.9643488,76.0306493 92.2518396,76.059348 92.5377078,76.0374453 C92.9517364,76.645389 93.6030477,77.0504334 94.3314086,77.1529309 C94.5471771,78.1425151 95.3049127,78.9244522 96.2872266,79.1712161 C96.4204735,79.4931721 96.6272804,79.7794417 96.8910761,80.0070866 C96.8910761,80.0695538 96.8806649,80.1335083 96.8806649,80.1989501 C96.8545772,80.8216482 97.1719181,81.4085412 97.7072619,81.7276659 C98.2426057,82.0467905 98.9098003,82.0467905 99.4451441,81.7276659 C99.9804878,81.4085412 100.297829,80.8216482 100.271741,80.1989501 C100.271801,79.9422914 100.216505,79.6886387 100.109624,79.4552931 C100.318685,79.1013039 100.428147,78.697375 100.426444,78.2862642 Z" id="Path" fill="#F86D70" fill-rule="nonzero"></path>
                <path d="M90.9269466,74.6527559 C91.0652668,74.1396325 91.8193351,73.895713 92.6596675,74.0831146 C92.8614996,72.811332 93.9496018,71.869524 95.2371829,71.8521435 C95.2951881,71.8521435 95.3531934,71.8521435 95.4097113,71.8521435 C95.1686949,71.7786046 94.9180394,71.7415076 94.6660542,71.7420757 C93.3784732,71.7594628 92.290371,72.7012708 92.0885389,73.9730534 C91.255643,73.7856518 90.4941382,74.0295713 90.355818,74.5426947 C90.2070866,75.079615 90.8020122,75.7072616 91.6825022,75.9452318 C91.8462817,75.9906324 92.014193,76.0195311 92.183727,76.0314961 C91.3478565,75.7875766 90.7856518,75.1777778 90.9269466,74.6527559 Z" id="Path" fill="#000000" fill-rule="nonzero" opacity="0.1"></path>
                <path d="M97.4458443,80.3030621 C97.4458443,80.2376203 97.4458443,80.1736658 97.4562555,80.1097113 C97.1924016,79.8827155 96.9855625,79.5969106 96.8524059,79.2753281 C95.8709566,79.0261263 95.1140922,78.2445127 94.8965879,77.2555556 C94.1680329,77.1535936 93.5165213,76.7484248 93.1028871,76.14007 C92.936302,76.1532437 92.7687906,76.1487568 92.6031496,76.1266842 C93.0184691,76.6865052 93.6410919,77.056221 94.3314086,77.1529309 C94.5471771,78.1425151 95.3049127,78.9244522 96.2872266,79.1712161 C96.4204735,79.4931721 96.6272804,79.7794417 96.8910761,80.0070866 C96.8910761,80.0695538 96.8806649,80.1335083 96.8806649,80.1989501 C96.8648758,81.1481174 97.6182342,81.9320354 98.5672791,81.9539808 C97.8859388,81.6911639 97.4390674,81.0333027 97.4458443,80.3030621 L97.4458443,80.3030621 Z" id="Path" fill="#000000" fill-rule="nonzero" opacity="0.1"></path>
                <circle id="Oval" fill="#FBBEBE" fill-rule="nonzero" transform="translate(94.311642, 77.277683) rotate(-37.220000) translate(-94.311642, -77.277683) " cx="94.3116424" cy="77.2776832" r="1"></circle>
                <path d="M46.671916,87.6340332 L48.6530184,86.4694663 C48.385275,86.0118149 48.0429408,85.6021197 47.6401575,85.2573053 L43.9040245,86.4188976 L46.8310586,84.6980752 C45.3564309,83.8905456 43.5651594,83.9209346 42.1187718,84.7780192 C40.6723843,85.6351038 39.7855004,87.1917071 39.7856518,88.8729659 C39.7856518,91.5010499 41.9169729,91.591776 44.5450569,91.591776 C47.1731409,91.591776 49.304475,91.5010499 49.304475,88.8729659 C49.3060258,88.2068287 49.1666365,87.5478977 48.8954506,86.9394576 L46.671916,87.6340332 Z" id="Path" fill="#660960" fill-rule="nonzero"></path>
                <path d="M47.1761155,90.1892388 C46.9651259,89.9777764 46.7294227,89.7925097 46.4741032,89.6374453 C46.1156605,89.3979878 45.7423447,89.1540682 45.3184602,89.0737533 C44.9466317,89.0023622 44.5629046,89.0633421 44.1836395,89.0410324 C43.5250924,89.0008368 42.9051777,88.7165987 42.4449694,88.243832 C42.1742782,87.964217 41.9615923,87.6206474 41.6358705,87.4064742 C41.2718194,87.1901477 40.8422712,87.1115203 40.4251969,87.1848644 C40.3043206,87.2017026 40.1846086,87.2260423 40.0667542,87.2577428 C39.8803264,87.7758367 39.7852147,88.3223513 39.7856503,88.8729659 C39.7856503,91.5010499 41.9169729,91.591776 44.5450569,91.591776 C45.8211724,91.591776 46.9783027,91.5709536 47.8335083,91.2482065 L47.6847769,90.9819773 C47.5496828,90.697143 47.3787446,90.4307393 47.1761155,90.1892388 Z" id="Path" fill="#000000" fill-rule="nonzero" opacity="0.1"></path>
            </g>
        </g>
    </g>
</svg>