<?xml version="1.0" encoding="UTF-8"?>
<svg xmlns="http://www.w3.org/2000/svg" xmlns:xlink="http://www.w3.org/1999/xlink" width="100pt" height="100pt" viewBox="0 0 100 100" version="1.1">
    <g id="surface5081709">
        <path style=" stroke:none;fill-rule:nonzero;fill:rgb(28.235294%,16.862745%,41.176471%);fill-opacity:1;" d="M 14 18 C 8.5 18 4 22.5 4 28 L 4 72 C 4 77.5 8.5 82 14 82 L 86 82 C 91.5 82 96 77.5 96 72 L 96 28 C 96 22.5 91.5 18 86 18 Z M 14 22 L 86 22 C 89.335938 22 92 24.664062 92 28 L 92 32 L 8 32 L 8 28 C 8 24.664062 10.664062 22 14 22 Z M 8 42 L 92 42 L 92 72 C 92 75.335938 89.335938 78 86 78 L 14 78 C 10.664062 78 8 75.335938 8 72 Z M 18 48 L 18 52 L 50 52 L 50 48 Z M 18 48 "/>
    </g>
</svg>
