<?xml version="1.0" encoding="UTF-8"?>
<svg width="15px" height="15px" viewBox="0 0 15 15" version="1.1" xmlns="http://www.w3.org/2000/svg" xmlns:xlink="http://www.w3.org/1999/xlink">
    <title>852B9E7A-13F0-4C03-9F08-D38E205AA0A0</title>
    <g id="Page-1" stroke="none" stroke-width="1" fill="none" fill-rule="evenodd">
        <g id="06---Expertise" transform="translate(-44.000000, -552.000000)" fill="#660960" fill-rule="nonzero">
            <g id="phone" transform="translate(44.000000, 552.000000)">
                <path d="M14.6047287,11.0007782 L12.5073068,8.90894942 C11.7582275,8.1618677 10.4847928,8.46072957 10.1851611,9.43190661 C9.96043729,10.1043093 9.21135803,10.4778502 8.5371867,10.3284047 C7.03902819,9.95486381 5.01651419,8.01245136 4.64197456,6.44357977 C4.41725079,5.77117704 4.86669834,5.02409533 5.54086967,4.8 C6.51467271,4.50116732 6.81430441,3.2311284 6.06522515,2.48404669 L3.96780323,0.392217899 C3.36853983,-0.1307393 2.46964472,-0.1307393 1.94528924,0.392217899 L0.522038652,1.81167315 C-0.901211936,3.30583658 0.671854503,7.26536965 4.19252701,10.7766537 C7.71319952,14.2879377 11.6833196,15.9315467 13.1814781,14.4373541 L14.6047287,13.0178988 C15.1291134,12.4202335 15.1291134,11.5237354 14.6047287,11.0007782 Z" id="Path"></path>
            </g>
        </g>
    </g>
</svg>