<?xml version="1.0" encoding="UTF-8"?>
<svg width="12px" height="15px" viewBox="0 0 12 15" version="1.1" xmlns="http://www.w3.org/2000/svg" xmlns:xlink="http://www.w3.org/1999/xlink">
    <title>FD157DB5-BBCB-426A-AEAC-843C86B18091</title>
    <g id="Page-1" stroke="none" stroke-width="1" fill="none" fill-rule="evenodd">
        <g id="02---My-Account" transform="translate(-45.000000, -374.000000)" fill="#660960" fill-rule="nonzero">
            <g id="pin" transform="translate(45.000000, 374.000000)">
                <path d="M11.1783398,3.8990625 C10.6499121,2.19140625 9.26074219,0.801826172 7.55308594,0.273339844 C5.74570312,-0.286523437 3.82271484,0.0246386719 2.35491211,1.10616211 C0.897919922,2.18021484 0.0281835938,3.90076172 0.0281835938,5.70849609 C0.0281835938,6.95557617 0.422695313,8.14037109 1.16879883,9.13458984 L5.74277344,15.0000069 L10.316748,9.13415039 C11.4333398,7.64540039 11.7475781,5.73726562 11.1783398,3.8990625 Z M5.74277344,8.78554687 C4.04625,8.78554687 2.66569336,7.40499023 2.66569336,5.7084668 C2.66569336,4.01194336 4.04625,2.63138672 5.74277344,2.63138672 C7.43929687,2.63138672 8.81985352,4.01194336 8.81985352,5.7084668 C8.81985352,7.40499023 7.43929687,8.78554687 5.74277344,8.78554687 Z" id="Shape"></path>
                <path d="M5.74277344,3.51641602 C4.5309082,3.51641602 3.54486328,4.49660156 3.54486328,5.7084668 C3.54486328,6.92033203 4.5309082,7.90637695 5.74277344,7.90637695 C6.95463867,7.90637695 7.94068359,6.92033203 7.94068359,5.7084668 C7.94068359,4.49660156 6.95463867,3.51641602 5.74277344,3.51641602 Z" id="Path"></path>
            </g>
        </g>
    </g>
</svg>