<?xml version="1.0" encoding="UTF-8"?>
<svg width="20px" height="20px" viewBox="0 0 20 20" version="1.1" xmlns="http://www.w3.org/2000/svg" xmlns:xlink="http://www.w3.org/1999/xlink">
    <title>BB32F450-B39D-4610-AFA7-7F28D68CC99C</title>
    <g id="Page-1" stroke="none" stroke-width="1" fill="none" fill-rule="evenodd">
        <g id="01---Homepage" transform="translate(-223.000000, -1302.000000)" fill="#7B848A" fill-rule="nonzero">
            <g id="bottom-bar" transform="translate(0.000000, 1296.000000)">
                <g id="buy" transform="translate(223.000000, 6.000000)">
                    <path d="M10,0 C4.48577883,0 0,4.48577883 0,10 C0,15.5142212 4.48577883,20 10,20 C15.5142212,20 20,15.5142212 20,10 C20,4.48577883 15.5142212,0 10,0 Z M14.375,10.8332825 L10.8332825,10.8332825 L10.8332825,14.375 C10.8332825,14.8350525 10.4600525,15.2082825 10,15.2082825 C9.5399475,15.2082825 9.16671754,14.8350525 9.16671754,14.375 L9.16671754,10.8332825 L5.625,10.8332825 C5.1649475,10.8332825 4.79171754,10.4600525 4.79171754,10 C4.79171754,9.5399475 5.1649475,9.16671754 5.625,9.16671754 L9.16671754,9.16671754 L9.16671754,5.625 C9.16671754,5.1649475 9.5399475,4.79171754 10,4.79171754 C10.4600525,4.79171754 10.8332825,5.1649475 10.8332825,5.625 L10.8332825,9.16671754 L14.375,9.16671754 C14.8350525,9.16671754 15.2082825,9.5399475 15.2082825,10 C15.2082825,10.4600525 14.8350525,10.8332825 14.375,10.8332825 L14.375,10.8332825 Z" id="Shape"></path>
                </g>
            </g>
        </g>
    </g>
</svg>