<?xml version="1.0" encoding="UTF-8"?>
<svg width="17px" height="17px" viewBox="0 0 17 17" version="1.1" xmlns="http://www.w3.org/2000/svg" xmlns:xlink="http://www.w3.org/1999/xlink">
    <title>6857FE58-FD47-4CDB-B7AB-5EC72BC700F7</title>
    <g id="Page-1" stroke="none" stroke-width="1" fill="none" fill-rule="evenodd">
        <g id="05---Current-Auctions" transform="translate(-316.000000, -745.000000)" fill="#7B848A" fill-rule="nonzero">
            <g id="bottom-bar" transform="translate(0.000000, 736.000000)">
                <g id="profile" transform="translate(316.000000, 9.000000)">
                    <path d="M8.5,0 C3.81317969,0 0,3.81317969 0,8.5 C0,13.1868203 3.81317969,17 8.5,17 C13.1868203,17 17,13.1868203 17,8.5 C17,3.81317969 13.1868203,0 8.5,0 Z M8.5,2.47917773 C10.7456934,2.47917773 12.5729277,4.30637891 12.5729277,6.55210547 C12.5729277,8.79783203 10.7456934,10.625 8.5,10.625 C6.25430664,10.625 4.42707227,8.79779883 4.42707227,6.55207227 C4.42707227,4.3063457 6.25430664,2.47917773 8.5,2.47917773 Z M8.5,15.5833223 C6.18550977,15.5833223 4.133125,14.4625508 2.83976367,12.7406367 C4.25674023,12.0588437 6.28030469,11.3333223 8.5,11.3333223 C10.7198613,11.3333223 12.7435918,12.0589434 14.1602695,12.7405703 C12.8669082,14.4625176 10.8145234,15.5833223 8.5,15.5833223 Z" id="Shape"></path>
                </g>
            </g>
        </g>
    </g>
</svg>