<?xml version="1.0" encoding="UTF-8"?>
<svg width="12px" height="15px" viewBox="0 0 12 15" version="1.1" xmlns="http://www.w3.org/2000/svg" xmlns:xlink="http://www.w3.org/1999/xlink">
    <title>69103091-D1C0-4C80-88F9-410920ED2F4B</title>
    <g id="Page-1" stroke="none" stroke-width="1" fill="none" fill-rule="evenodd">
        <g id="02---My-Account" transform="translate(-45.000000, -306.000000)" fill-rule="nonzero">
            <g id="k-info" transform="translate(45.000000, 306.000000)">
                <path d="M5.74285714,7.33598571 C7.4106,7.33598571 8.7627,5.69378571 8.7627,3.66801429 C8.7627,1.6422 8.31878571,0 5.74285714,0 C3.16692857,0 2.72292857,1.6422 2.72292857,3.66801429 C2.72292857,5.69378571 4.07502857,7.33598571 5.74285714,7.33598571 Z" id="Path" fill="#660960"></path>
                <path d="M0.0679244688,12.9730816 C0.0667244688,12.7784959 0.0655244688,12.9182573 0.0679244688,12.9730816 L0.0679244688,12.9730816 Z" id="Path" fill="#000000"></path>
                <path d="M11.4744953,13.0330286 C11.4782953,12.9992143 11.4757953,12.7984286 11.4744953,13.0330286 L11.4744953,13.0330286 Z" id="Path" fill="#000000"></path>
                <path d="M11.4400714,12.7884429 C11.3841429,9.2595 10.9232571,8.25394286 7.39641429,7.61742857 C7.39641429,7.61742857 6.89995714,8.25004286 5.74281429,8.25004286 C4.58567143,8.25004286 4.08912857,7.61742857 4.08912857,7.61742857 C0.600771429,8.247 0.111857143,9.23764286 0.0475714286,12.6738 C0.0423,12.9543857 0.0398571429,12.9691286 0.0389142857,12.9365571 C0.0391285714,12.9975857 0.0393857143,13.1104714 0.0393857143,13.3073143 C0.0393857143,13.3073143 0.879042857,15 5.74281429,15 C10.6065,15 11.4462429,13.3073143 11.4462429,13.3073143 C11.4462429,13.1808429 11.4463286,13.0929 11.4464571,13.0330714 C11.4455143,13.0532143 11.4436286,13.0141714 11.4400714,12.7884429 Z" id="Path" fill="#660960"></path>
            </g>
        </g>
    </g>
</svg>