<svg xmlns="http://www.w3.org/2000/svg" width="151" height="132" fill="none" viewBox="0 0 151 132">
    <path fill="#fff" d="M133.171 18.8H17.234C7.727 18.8 0 26.529 0 36.036v78.335c0 9.507 7.727 17.234 17.234 17.234h115.937c9.507 0 17.234-7.727 17.234-17.234V36.035c0-9.507-7.727-17.234-17.234-17.234z" opacity=".4"/>
    <path fill="#fff" d="M89.303 0h-28.2c-6.048 0-10.968 4.92-10.968 10.967V23.5c0 6.047 4.92 10.966 10.967 10.966h28.201c6.047 0 10.967-4.919 10.967-10.966V10.967C100.27 4.919 95.35 0 89.303 0zM62.668 59.536c0 8.652-7.013 15.667-15.666 15.667-8.654 0-15.667-7.015-15.667-15.667 0-8.654 7.013-15.668 15.667-15.668 8.653 0 15.666 7.014 15.666 15.668zM57.968 81.47H36.035c-9.507 0-17.234 7.726-17.234 17.233v3.134c0 2.595 2.105 4.7 4.7 4.7h47.001c2.595 0 4.7-2.105 4.7-4.7v-3.134c0-9.507-7.727-17.234-17.234-17.234zM126.904 56.402H92.437c-2.595 0-4.7-2.106-4.7-4.7 0-2.595 2.105-4.7 4.7-4.7h34.467c2.595 0 4.7 2.105 4.7 4.7 0 2.594-2.105 4.7-4.7 4.7zM126.904 81.469H92.437c-2.595 0-4.7-2.106-4.7-4.7 0-2.595 2.105-4.7 4.7-4.7h34.467c2.595 0 4.7 2.105 4.7 4.7 0 2.594-2.105 4.7-4.7 4.7zM126.904 106.537H92.437c-2.595 0-4.7-2.105-4.7-4.7 0-2.594 2.105-4.7 4.7-4.7h34.467c2.595 0 4.7 2.106 4.7 4.7 0 2.595-2.105 4.7-4.7 4.7z"/>
</svg>
