<?xml version="1.0" encoding="UTF-8"?>
<svg width="15px" height="15px" viewBox="0 0 15 15" version="1.1" xmlns="http://www.w3.org/2000/svg" xmlns:xlink="http://www.w3.org/1999/xlink">
    <title>724474B9-F20F-4CB1-A16C-9840FA68AD62</title>
    <g id="Page-1" stroke="none" stroke-width="1" fill="none" fill-rule="evenodd">
        <g id="01---Homepage" transform="translate(-281.000000, -53.000000)" fill="#7B848A" fill-rule="nonzero">
            <g id="709592" transform="translate(281.000000, 53.000000)">
                <path d="M6.60568359,0 C2.9634082,0 0,2.9634082 0,6.60568359 C0,10.2481641 2.9634082,13.2113672 6.60568359,13.2113672 C10.2481641,13.2113672 13.2113672,10.2481641 13.2113672,6.60568359 C13.2113672,2.9634082 10.2481641,0 6.60568359,0 Z M6.60568359,11.9918848 C3.63577148,11.9918848 1.21951172,9.575625 1.21951172,6.60571289 C1.21951172,3.63580078 3.63577148,1.21951172 6.60568359,1.21951172 C9.5755957,1.21951172 11.9918555,3.63577148 11.9918555,6.60568359 C11.9918555,9.5755957 9.5755957,11.9918848 6.60568359,11.9918848 Z" id="Shape"></path>
                <path d="M14.8213477,13.9591406 L11.3254102,10.4632031 C11.0871973,10.2249902 10.701416,10.2249902 10.4632031,10.4632031 C10.2249902,10.7012109 10.2249902,11.0874023 10.4632031,11.3254102 L13.9591406,14.8213477 C14.0782324,14.9404395 14.2341504,15 14.3902441,15 C14.5461328,15 14.7022266,14.9404395 14.8213477,14.8213477 C15.0595605,14.5833398 15.0595605,14.1971484 14.8213477,13.9591406 Z" id="Path"></path>
            </g>
        </g>
    </g>
</svg>