<?xml version="1.0" encoding="UTF-8"?>
<svg width="15px" height="15px" viewBox="0 0 15 15" version="1.1" xmlns="http://www.w3.org/2000/svg" xmlns:xlink="http://www.w3.org/1999/xlink">
    <title>222FE2F4-334B-48E8-A131-7F082AA20F0E</title>
    <g id="Page-1" stroke="none" stroke-width="1" fill="none" fill-rule="evenodd">
        <g id="02---My-Account" transform="translate(-43.000000, -442.000000)" fill="#660960" fill-rule="nonzero">
            <g id="tl" transform="translate(43.000000, 442.000000)">
                <path d="M7.5,0 C3.358125,0 0,3.358125 0,7.5 C0,11.641875 3.358125,15 7.5,15 C11.641875,15 15,11.641875 15,7.5 C15,3.358125 11.641875,0 7.5,0 Z M11.1740625,9.16125 C9.95625,11.0353125 8.1965625,11.2696875 7.3903125,11.2696875 C7.1428125,11.2696875 6.98625,11.248125 6.9609375,11.244375 C6.7321875,11.2096875 6.5625,11.0128125 6.5625,10.78125 L6.5625,8.1 L5.2696875,8.4234375 C5.2321875,8.4328125 5.19375,8.4375 5.15625,8.4375 C4.9453125,8.4375 4.755,8.2959375 4.7015625,8.0821875 C4.63875,7.831875 4.7915625,7.576875 5.0428125,7.5140625 L6.5625,7.134375 L6.5625,6.225 L5.2696875,6.5484375 C5.2321875,6.5578125 5.19375,6.5625 5.15625,6.5625 C4.9453125,6.5625 4.755,6.4209375 4.7015625,6.2071875 C4.63875,5.956875 4.7915625,5.701875 5.0428125,5.6390625 L6.5625,5.259375 L6.5625,4.21875 C6.5625,3.96 6.7725,3.75 7.03125,3.75 C7.29,3.75 7.5,3.96 7.5,4.21875 L7.5,5.025 L8.7928125,4.7015625 C9.0384375,4.6359375 9.298125,4.7915625 9.3609375,5.0428125 C9.4228125,5.2940625 9.2709375,5.548125 9.0196875,5.6109375 L7.5,5.990625 L7.5,6.9 L8.7928125,6.5765625 C9.0384375,6.511875 9.298125,6.6665625 9.3609375,6.9178125 C9.4228125,7.1690625 9.2709375,7.423125 9.0196875,7.4859375 L7.5,7.865625 L7.5,10.3321875 C8.1515625,10.3115625 9.46125,10.0771875 10.3884375,8.6503125 C10.53,8.43375 10.8225,8.37375 11.03625,8.5134375 C11.25375,8.6540625 11.3146875,8.9446875 11.1740625,9.16125 Z" id="Shape"></path>
            </g>
        </g>
    </g>
</svg>