<?xml version="1.0" encoding="UTF-8"?>
<svg xmlns="http://www.w3.org/2000/svg" xmlns:xlink="http://www.w3.org/1999/xlink" width="100pt" height="100pt" viewBox="0 0 100 100" version="1.1">
    <g id="surface4468604">
        <path style=" stroke:none;fill-rule:nonzero;fill:rgb(28.235294%,16.862745%,41.176471%);fill-opacity:1;" d="M 5.6875 26 C 2.570312 26 0 28.570312 0 31.6875 L 0 84 C 0 87.320312 2.679688 90 6 90 L 14.1875 90 C 15.140625 95.671875 20.070312 100 26 100 C 31.929688 100 36.859375 95.671875 37.8125 90 L 56.3125 90 C 57.789062 90 59.109375 89.375 60.125 88.4375 C 61.164062 89.351562 62.492188 89.984375 64 90 L 66.1875 90 C 67.140625 95.671875 72.070312 100 78 100 C 84.601562 100 90 94.601562 90 88 C 90 81.398438 84.601562 76 78 76 C 72.070312 76 67.140625 80.328125 66.1875 86 L 64 86 C 63.625 86 63.054688 85.742188 62.625 85.3125 C 62.195312 84.882812 62 84.367188 62 84 L 62 46 C 62 45.25 63.25 44 64 44 L 80 44 C 81.570312 44 83.78125 45.679688 85.3125 47.5 C 85.328125 47.523438 85.359375 47.539062 85.375 47.5625 L 85.6875 48 L 76 48 C 72.8125 48 70 50.578125 70 54 L 70 62 C 70 63.664062 70.75 65.125 71.8125 66.1875 C 72.875 67.25 74.335938 68 76 68 L 96 68 L 96 84 C 96 84.75 94.75 86 94 86 L 90 86 L 90 90 L 94 90 C 97.320312 90 100 87.320312 100 84 L 100 64.75 C 100 60.171875 96.8125 56.125 96.8125 56.125 L 96.75 56.125 L 88.5 45.125 L 88.5 45.0625 L 88.4375 45 C 86.59375 42.773438 83.828125 40 80 40 L 64 40 C 63.289062 40 62.632812 40.148438 62 40.375 L 62 31.8125 C 62 28.742188 59.578125 26 56.375 26 Z M 5.6875 30 L 56.375 30 C 57.234375 30 58 30.828125 58 31.8125 L 58 84.3125 C 58 85.25 57.257812 86 56.3125 86 L 37.8125 86 C 36.859375 80.328125 31.929688 76 26 76 C 20.070312 76 15.140625 80.328125 14.1875 86 L 6 86 C 5.25 86 4 84.742188 4 84 L 4 31.6875 C 4 30.75 4.734375 30 5.6875 30 Z M 76 52 L 88.6875 52 L 93.5625 58.5 C 93.5625 58.5 95.375 61.601562 95.75 64 L 76 64 C 75.664062 64 75.125 63.75 74.6875 63.3125 C 74.25 62.875 74 62.335938 74 62 L 74 54 C 74 52.992188 75.1875 52 76 52 Z M 26 80 C 30.445312 80 34 83.554688 34 88 C 34 92.445312 30.445312 96 26 96 C 21.554688 96 18 92.445312 18 88 C 18 83.554688 21.554688 80 26 80 Z M 78 80 C 82.445312 80 86 83.554688 86 88 C 86 92.445312 82.445312 96 78 96 C 73.554688 96 70 92.445312 70 88 C 70 83.554688 73.554688 80 78 80 Z M 78 80 "/>
    </g>
</svg>