<svg xmlns="http://www.w3.org/2000/svg" width="20" height="22" fill="none" viewBox="0 0 20 22">
    <path fill="#fff" fill-rule="evenodd" d="M15.67 5.031c.836 2.417.05 5.098-1.96 6.679 3.438 1.364 5.841 4.514 6.25 8.19.058.546-.334 1.037-.88 1.1h-.11c-.512.003-.944-.381-1-.89-.455-4.047-3.877-7.107-7.95-7.107s-7.495 3.06-7.95 7.107c-.06.552-.558.95-1.11.89-.552-.06-.95-.558-.89-1.11.407-3.665 2.797-6.809 6.22-8.18-2.01-1.581-2.796-4.262-1.96-6.679C5.167 2.615 7.443.995 10 .995s4.833 1.62 5.67 4.036zM6 7c0 2.21 1.79 4 4 4 1.06 0 2.078-.421 2.828-1.172C13.578 9.078 14 8.061 14 7c0-2.21-1.79-4-4-4S6 4.79 6 7z" clip-rule="evenodd"/>
</svg>
