<?xml version="1.0" encoding="UTF-8"?>
<svg width="15px" height="15px" viewBox="0 0 15 15" version="1.1" xmlns="http://www.w3.org/2000/svg" xmlns:xlink="http://www.w3.org/1999/xlink">
    <title>68F96F13-38C5-448E-AED1-C2BA96583466</title>
    <g id="Page-1" stroke="none" stroke-width="1" fill="none" fill-rule="evenodd">
        <g id="06---Expertise" transform="translate(-43.000000, -806.000000)" fill="#660960" fill-rule="nonzero">
            <g id="whatsapp" transform="translate(43.000000, 806.000000)">
                <path d="M7.501875,0 L7.498125,0 C3.3628125,0 0,3.36375 0,7.5 C0,9.140625 0.52875,10.66125 1.4278125,11.8959375 L0.493125,14.6821875 L3.3759375,13.760625 C4.561875,14.54625 5.9765625,15 7.501875,15 C11.6371875,15 15,11.6353125 15,7.5 C15,3.3646875 11.6371875,0 7.501875,0 Z M11.8659375,10.5909375 C11.685,11.101875 10.966875,11.525625 10.3940625,11.649375 C10.0021875,11.7328125 9.4903125,11.799375 7.7671875,11.085 C5.563125,10.171875 4.14375,7.9321875 4.033125,7.786875 C3.9271875,7.6415625 3.1425,6.6009375 3.1425,5.5246875 C3.1425,4.4484375 3.6890625,3.924375 3.909375,3.699375 C4.0903125,3.5146875 4.389375,3.4303125 4.67625,3.4303125 C4.7690625,3.4303125 4.8525,3.435 4.9275,3.43875 C5.1478125,3.448125 5.2584375,3.46125 5.40375,3.8090625 C5.5846875,4.245 6.0253125,5.32125 6.0778125,5.431875 C6.13125,5.5425 6.1846875,5.6925 6.1096875,5.8378125 C6.039375,5.9878125 5.9775,6.054375 5.866875,6.181875 C5.75625,6.309375 5.65125,6.406875 5.540625,6.54375 C5.439375,6.6628125 5.325,6.7903125 5.4525,7.010625 C5.58,7.22625 6.020625,7.9453125 6.669375,8.5228125 C7.5065625,9.268125 8.1853125,9.50625 8.428125,9.6075 C8.6090625,9.6825 8.8246875,9.6646875 8.956875,9.5240625 C9.1246875,9.343125 9.331875,9.043125 9.5428125,8.7478125 C9.6928125,8.5359375 9.8821875,8.5096875 10.0809375,8.5846875 C10.2834375,8.655 11.355,9.1846875 11.5753125,9.294375 C11.795625,9.405 11.9409375,9.4575 11.994375,9.5503125 C12.046875,9.643125 12.046875,10.0790625 11.8659375,10.5909375 Z" id="Shape"></path>
            </g>
        </g>
    </g>
</svg>